<?xml version="1.0" encoding="UTF-8"?>
<svg version="1.1" xmlns="http://www.w3.org/2000/svg" width="612" height="612">
<path d="M0 0 C201.96 0 403.92 0 612 0 C612 201.96 612 403.92 612 612 C410.04 612 208.08 612 0 612 C0 410.04 0 208.08 0 0 Z " fill="#FEFEFE" transform="translate(0,0)"/>
<path d="M0 0 C1.03460861 -0.00043808 2.06921722 -0.00087616 3.13517761 -0.00132751 C6.54953993 0.00075987 9.96340917 0.0240892 13.37768555 0.04760742 C15.74708284 0.05320354 18.11648361 0.05747356 20.48588562 0.06047058 C26.71828822 0.07191805 32.95048066 0.10138469 39.18280029 0.13458252 C45.54395708 0.16528533 51.90514787 0.17897639 58.26635742 0.1940918 C70.74496532 0.22625423 83.22341732 0.27744965 95.7019043 0.34057617 C95.96237549 1.21447998 96.22284668 2.08838379 96.49121094 2.98876953 C97.01509399 4.72332397 97.01509399 4.72332397 97.54956055 6.49291992 C98.06401733 8.20596313 98.06401733 8.20596313 98.58886719 9.95361328 C100.82338186 16.75322328 103.27467394 23.57829499 109.7019043 27.34057617 C113.84770853 28.90624764 117.68248285 29.668945 122.0769043 30.15307617 C127.57288243 30.9696215 132.90714723 31.98805954 136.7019043 36.34057617 C144.33093101 56.77727356 134.36078419 80.32375026 126.7878418 99.32495117 C123.35523256 108.85723295 122.44784402 121.55293964 126.41674805 131.00463867 C128.29574635 134.91670878 130.46011266 138.62676473 132.7019043 142.34057617 C133.07573242 143.1062793 133.44956055 143.87198242 133.8347168 144.66088867 C134.68852238 146.53374311 134.68852238 146.53374311 136.7019043 148.27807617 C138.87653434 150.52066341 139.72263656 152.40277296 140.7019043 155.34057617 C141.42265137 154.61837891 142.14339844 153.89618164 142.88598633 153.15209961 C145.49931112 150.54285318 148.12571074 147.94772612 150.7565918 145.35620117 C152.20318229 143.92437852 153.64879733 142.49157891 155.09399414 141.05834961 C156.07721334 140.08516657 157.06222293 139.11378884 158.04907227 138.14428711 C163.52484331 132.76182189 168.72234934 127.39531419 173.17114258 121.10913086 C174.86193241 119.15568882 176.38823767 118.42415395 178.7019043 117.34057617 C179.37179741 116.00886095 180.03826735 114.67542007 180.7019043 113.34057617 C182.76049805 111.74291992 182.76049805 111.74291992 185.1394043 110.27807617 C190.76331231 106.78513824 193.27073205 103.69101366 196.0144043 97.65307617 C196.31854248 96.99460693 196.62268066 96.3361377 196.93603516 95.65771484 C199.39039538 90.24738732 201.47078084 84.73310388 203.48876953 79.1484375 C205.75994883 72.95758062 208.59380736 67.15999171 211.7019043 61.34057617 C214.43821884 62.70873344 214.46648321 63.98943526 215.4284668 66.85620117 C215.7378418 67.77788086 216.0472168 68.69956055 216.3659668 69.64916992 C216.68307617 70.61983398 217.00018555 71.59049805 217.3269043 72.59057617 C217.65174805 73.54577148 217.9765918 74.5009668 218.3112793 75.48510742 C218.61807617 76.41194336 218.92487305 77.3387793 219.2409668 78.29370117 C219.52149902 79.1409375 219.80203125 79.98817383 220.09106445 80.86108398 C220.72803778 83.44665595 220.81275314 85.68850269 220.7019043 88.34057617 C223.74976831 86.81664416 223.93252436 84.48944325 225.0769043 81.34057617 C227.09591922 75.9066102 229.26884796 70.60087117 231.7019043 65.34057617 C232.3619043 65.34057617 233.0219043 65.34057617 233.7019043 65.34057617 C234.34881352 66.94430927 234.99439193 68.54857923 235.6394043 70.15307617 C235.99905273 71.04639648 236.35870117 71.9397168 236.72924805 72.86010742 C238.36957704 77.04327574 238.83028297 80.17195627 238.8347168 84.66088867 C238.83600586 85.91901367 238.83729492 87.17713867 238.83862305 88.47338867 C238.83475586 89.79081055 238.83088867 91.10823242 238.8269043 92.46557617 C238.83077148 93.75979492 238.83463867 95.05401367 238.83862305 96.38745117 C238.83306048 101.84988794 238.81188934 107.16542279 238.01049805 112.57495117 C237.28625432 116.20278925 237.28625432 116.20278925 239.02954102 118.05053711 C240.83217762 119.63502024 242.73142935 120.97107787 244.7019043 122.34057617 C246.13424892 123.53028318 247.55109567 124.73889403 248.9519043 125.96557617 C249.59643555 126.5147168 250.2409668 127.06385742 250.9050293 127.62963867 C254.7230547 131.26506286 256.22538891 134.58435771 257.8269043 139.59057617 C264.52596471 157.06638595 288.69367475 167.3122065 304.7019043 175.34057617 C304.9697738 179.90775115 304.37236519 182.70022351 302.2019043 186.71557617 C301.7378418 187.58956055 301.2737793 188.46354492 300.7956543 189.36401367 C300.4347168 190.0162793 300.0737793 190.66854492 299.7019043 191.34057617 C299.0419043 191.34057617 298.3819043 191.34057617 297.7019043 191.34057617 C297.4750293 191.89745117 297.2481543 192.45432617 297.0144043 193.02807617 C293.11267379 199.90255374 285.20824689 205.0917124 277.7019043 207.34057617 C274.26075068 207.60536697 270.83872251 207.57381033 267.3894043 207.52807617 C266.02138672 207.52710938 266.02138672 207.52710938 264.62573242 207.52612305 C260.62001018 207.50027968 256.69862503 207.40270772 252.72924805 206.84448242 C247.68907369 206.1370559 242.65946226 206.11801238 237.5769043 206.09057617 C236.61397461 206.06995117 235.65104492 206.04932617 234.65893555 206.02807617 C229.20167729 205.99804999 225.43963323 206.32633603 220.7019043 209.34057617 C219.8562793 209.83557617 219.0106543 210.33057617 218.1394043 210.84057617 C211.99210683 217.14549665 210.16488746 225.9398429 208.0456543 234.24291992 C207.81845703 235.12008667 207.59125977 235.99725342 207.35717773 236.90100098 C206.80195164 239.04665759 206.25028716 241.19316235 205.7019043 243.34057617 C193.41913187 243.43328269 181.13644277 243.50434474 168.85339165 243.54782486 C163.1497753 243.56869385 157.44639844 243.5969994 151.74291992 243.64233398 C146.23807549 243.68581557 140.73346132 243.70971846 135.2284584 243.72008514 C133.12890117 243.7274723 131.02935644 243.7418977 128.92989731 243.7634964 C125.98757506 243.79256066 123.04620262 243.79653085 120.10375977 243.79467773 C119.23701126 243.80905884 118.37026276 243.82343994 117.47724915 243.83825684 C112.09950743 243.8016414 108.85251695 243.08686061 104.7019043 239.34057617 C100.90707621 234.07820215 101.29521888 228.69951703 101.36132812 222.4699707 C101.36089005 221.38644821 101.36045197 220.30292572 101.36000061 219.18656921 C101.36208587 215.61532393 101.38540529 212.04455166 101.40893555 208.47338867 C101.41453241 205.99331926 101.41880208 203.51324652 101.42179871 201.03317261 C101.43324023 194.51309006 101.4627018 187.99320874 101.49591064 181.47320557 C101.52825198 174.81705521 101.54030726 168.16084623 101.55541992 161.50463867 C101.58757187 148.44986544 101.63818156 135.39523152 101.7019043 122.34057617 C101.13113883 122.34518514 100.56037336 122.3497941 99.97231197 122.35454273 C86.06684064 122.46509559 72.16144659 122.5474488 58.25562954 122.59963703 C51.53077319 122.62538897 44.80621068 122.66048101 38.08154297 122.71777344 C31.59114019 122.77212273 25.10104255 122.80200341 18.61042976 122.81496239 C16.13489033 122.82419684 13.6593675 122.84222961 11.18395805 122.86922646 C7.71488304 122.9055536 4.24706683 122.91051971 0.77783203 122.90820312 C-0.24428375 122.9261795 -1.26639954 122.94415588 -2.31948853 122.962677 C-7.87175539 122.92259066 -11.68630998 122.40066115 -15.99708843 118.7270298 C-20.30427941 114.1369551 -19.58240495 108.29965086 -19.55688477 102.38134766 C-19.5603894 101.38242493 -19.56389404 100.3835022 -19.56750488 99.35430908 C-19.57629815 96.05669174 -19.57048189 92.7592894 -19.5637207 89.46166992 C-19.56506794 87.16911274 -19.56700895 84.87655584 -19.56951904 82.58399963 C-19.57246696 77.781558 -19.56818288 72.9791908 -19.55883789 68.17675781 C-19.54743719 62.01732435 -19.55400893 55.85806506 -19.56598282 49.69863796 C-19.57320485 44.96579167 -19.570912 40.23298677 -19.56572723 35.50013924 C-19.56439203 33.22870933 -19.56603395 30.95727568 -19.57068634 28.68585014 C-19.57575782 25.51393528 -19.56803265 22.34230387 -19.55688477 19.17041016 C-19.56093323 18.22952042 -19.56498169 17.28863068 -19.56915283 16.31922913 C-19.56069336 15.02183304 -19.56069336 15.02183304 -19.55206299 13.69822693 C-19.55130894 12.94885077 -19.55055489 12.19947462 -19.54977798 11.4273901 C-19.26261907 9.046423 -18.47813785 7.41215431 -17.2980957 5.34057617 C-16.6380957 5.34057617 -15.9780957 5.34057617 -15.2980957 5.34057617 C-15.2980957 4.68057617 -15.2980957 4.02057617 -15.2980957 3.34057617 C-10.71985629 -0.61455695 -5.71366234 -0.06332353 0 0 Z " fill="#029FC6" transform="translate(143.298095703125,244.659423828125)"/>
<path d="M0 0 C0.99410385 -0.00686325 1.9882077 -0.0137265 3.01243591 -0.02079773 C6.29570842 -0.03908533 9.57850393 -0.03522493 12.86181641 -0.02954102 C15.14718786 -0.03410223 17.43255794 -0.03940763 19.71792603 -0.04542542 C24.50780814 -0.05436067 29.29752357 -0.051929 34.08740234 -0.04199219 C40.21979324 -0.03050888 46.35160778 -0.05070264 52.48392296 -0.07990932 C57.20404708 -0.09827413 61.92403322 -0.09797814 66.64418411 -0.0922718 C68.90476921 -0.09211859 71.16536367 -0.09816307 73.42591476 -0.11056328 C76.59029805 -0.12547421 79.75361826 -0.11479417 82.91796875 -0.09765625 C83.84807266 -0.10732422 84.77817657 -0.11699219 85.73646545 -0.12695312 C91.69189639 -0.05956206 95.27445386 0.80582392 100.08837891 4.40405273 C104.24318052 8.89651614 103.48943767 14.48099315 103.42895508 20.25292969 C103.4296122 21.89262474 103.4296122 21.89262474 103.43028259 23.56544495 C103.42819444 27.17459034 103.40486137 30.78326984 103.38134766 34.39233398 C103.37575182 36.89625291 103.37148166 39.40017512 103.3684845 41.90409851 C103.35820482 47.81847381 103.33456632 53.73269991 103.30443603 59.64699858 C103.26757641 67.04320046 103.25149314 74.43942312 103.23486328 81.83569336 C103.20269705 95.02523122 103.15207638 108.2146314 103.08837891 121.40405273 C103.64791512 121.40036556 104.20745132 121.39667839 104.78394318 121.39287949 C118.42274987 121.30439489 132.06150602 121.23853406 145.70053864 121.19680405 C152.29639901 121.17594403 158.89205196 121.14765456 165.48779297 121.10229492 C171.85499608 121.0587818 178.22199986 121.0349037 184.58934021 121.02454376 C187.0165877 121.01716231 189.44382448 121.00274807 191.87098694 120.98113251 C195.27506955 120.95202694 198.67833218 120.94809987 202.08251953 120.94995117 C203.08233856 120.93557007 204.08215759 120.92118896 205.11227417 120.90637207 C211.24973764 120.94240608 216.05412446 121.71111657 221.08837891 125.40405273 C225.07493566 129.69892554 224.51249578 134.80126158 224.4765625 140.34741211 C224.48444794 141.84338676 224.48444794 141.84338676 224.49249268 143.36958313 C224.50568408 146.66248285 224.49695739 149.95489819 224.48681641 153.24780273 C224.48883738 155.53796481 224.49174902 157.82812626 224.49551392 160.11828613 C224.49993611 164.91656627 224.4935094 169.7146788 224.47949219 174.51293945 C224.46240056 180.66338187 224.47224227 186.81343155 224.49020958 192.96385956 C224.5010501 197.69247395 224.49759979 202.42099523 224.4898262 207.14961243 C224.48782495 209.41742499 224.49028083 211.68524601 224.49726486 213.95304871 C224.50488354 217.1224914 224.49326871 220.29129804 224.4765625 223.46069336 C224.48263519 224.39798782 224.48870789 225.33528229 224.4949646 226.30097961 C224.4475146 231.16017073 224.26648143 234.47197024 221.08837891 238.40405273 C213.80990749 244.954677 205.18724987 244.26441365 195.82275391 244.09545898 C190.12293722 243.6979475 187.48968575 242.42791524 183.33837891 238.52905273 C181.89091443 236.84673475 180.4678098 235.14259167 179.08837891 233.40405273 C178.09837891 232.74405273 177.10837891 232.08405273 176.08837891 231.40405273 C176.08837891 230.74405273 176.08837891 230.08405273 176.08837891 229.40405273 C174.43837891 228.74405273 172.78837891 228.08405273 171.08837891 227.40405273 C171.08837891 226.74405273 171.08837891 226.08405273 171.08837891 225.40405273 C170.54697266 225.18104492 170.00556641 224.95803711 169.44775391 224.72827148 C166.33879132 222.9833405 163.90926633 220.65139924 161.33837891 218.21655273 C160.27541201 217.22216961 159.21160768 216.22868093 158.14697266 215.23608398 C157.36942627 214.51026123 157.36942627 214.51026123 156.57617188 213.76977539 C153.96441685 211.37230942 151.24418693 209.10244447 148.51416016 206.84155273 C147.08837891 205.40405273 147.08837891 205.40405273 146.08837891 202.40405273 C144.76883841 201.71048579 143.43229013 201.04913012 142.08837891 200.40405273 C137.54575055 196.71085895 133.05554729 192.80925267 129.40087891 188.21655273 C127.53747205 185.95024709 125.95568621 184.40321824 123.71337891 182.59155273 C120.3124466 179.75257706 117.74794038 176.62569851 115.10791016 173.07983398 C113.57955815 171.05484148 112.02492178 169.09068744 110.41259766 167.13452148 C102.28908936 157.2119398 95.22110745 147.48610945 94.84887695 134.26123047 C94.32123999 116.77156504 91.68489309 97.27177361 80.08837891 83.40405273 C77.00404244 80.64606722 73.68055637 78.3054606 70.08056641 76.26733398 C63.48648439 72.16865948 61.06475547 66.11059029 57.94775391 59.27905273 C55.91188884 54.86873523 53.54120239 50.85687622 50.08837891 47.40405273 C49.09837891 47.40405273 48.10837891 47.40405273 47.08837891 47.40405273 C47.09998047 48.52424805 47.11158203 49.64444336 47.12353516 50.79858398 C47.13291512 52.27123857 47.1420151 53.74389495 47.15087891 55.21655273 C47.15925781 55.95454102 47.16763672 56.6925293 47.17626953 57.45288086 C47.19097719 60.70327342 47.12369592 63.29810168 46.08837891 66.40405273 C42.71795472 65.83083893 41.21510866 64.85580618 38.95947266 62.31420898 C38.399375 61.69481445 37.83927734 61.07541992 37.26220703 60.43725586 C36.68921875 59.78692383 36.11623047 59.1365918 35.52587891 58.46655273 C34.38152906 57.18411374 33.23449212 55.90406624 32.08447266 54.62670898 C31.58101318 54.05702393 31.07755371 53.48733887 30.55883789 52.90039062 C27.33151489 49.61626931 24.51138251 48.99378655 20.08837891 48.40405273 C20.30494141 49.41983398 20.52150391 50.43561523 20.74462891 51.48217773 C24.46726543 69.58562174 24.46726543 69.58562174 23.08837891 76.40405273 C20.51866057 79.65001274 17.65861211 81.36710414 13.96337891 83.15405273 C13.09455078 83.58202148 12.22572266 84.00999023 11.33056641 84.45092773 C9.08837891 85.40405273 9.08837891 85.40405273 7.08837891 85.40405273 C6.81380859 85.99831055 6.53923828 86.59256836 6.25634766 87.20483398 C5.13781762 89.31096245 3.99020389 90.82805515 2.40087891 92.59155273 C0.02873602 95.27385474 -2.14853081 98.03206418 -4.28662109 100.90405273 C-8.20704382 105.99189023 -12.68962994 111.33005568 -18.91162109 113.40405273 C-19.00434804 100.09547556 -19.07540011 86.7869754 -19.11886978 73.47814083 C-19.13973426 67.29813657 -19.16803176 61.11835352 -19.21337891 54.93847656 C-19.2568763 48.97327567 -19.28076678 43.0082874 -19.29113007 37.04294014 C-19.29851436 34.76837378 -19.31293416 32.4938189 -19.33454132 30.21934319 C-19.36362623 27.03057688 -19.36757485 23.84268645 -19.36572266 20.65380859 C-19.38010376 19.71584946 -19.39448486 18.77789032 -19.40930176 17.81150818 C-19.37173427 11.82465438 -18.53633969 8.23923052 -14.91162109 3.40405273 C-10.53463561 -0.52450067 -5.57854044 -0.02688279 0 0 Z " fill="#04426B" transform="translate(263.91162109375,123.595947265625)"/>
<path d="M0 0 C17.49 0 34.98 0 53 0 C53 28.71 53 57.42 53 87 C50.58927309 83.38390963 50.43761351 80.32816041 50.0625 76.125 C49.38844436 69.41360299 48.59431806 62.7378104 47.625 56.0625 C47.5022168 55.21099365 47.37943359 54.3594873 47.25292969 53.48217773 C46.4986996 48.29944506 45.71365798 43.1218333 44.91796875 37.9453125 C44.73476074 36.74124756 44.55155273 35.53718262 44.36279297 34.29663086 C44.0038471 31.94246194 43.63982686 29.58905946 43.27001953 27.23657227 C42.38381102 21.41569536 41.79202031 15.88797668 42 10 C40.69289062 9.91878906 39.38578125 9.83757812 38.0390625 9.75390625 C30.31262629 8.98126263 22.87156897 6.87781782 15.375 4.9375 C13.87907481 4.55597908 12.38298206 4.17511457 10.88671875 3.79492188 C7.25585043 2.87083669 3.62732662 1.93790391 0 1 C0 0.67 0 0.34 0 0 Z " fill="#099FC4" transform="translate(176,382)"/>
<path d="M0 0 C1.52838939 3.05677877 2.32689024 4.88598841 2.96142578 8.07836914 C3.12144073 8.86921402 3.28145569 9.6600589 3.44631958 10.47486877 C3.61098724 11.31976364 3.77565491 12.16465851 3.9453125 13.03515625 C4.12005096 13.91022324 4.29478943 14.78529022 4.474823 15.68687439 C4.84223396 17.53297605 5.20684672 19.37963652 5.56884766 21.22680664 C6.12389403 24.05686093 6.6881718 26.88495563 7.25390625 29.71289062 C7.60992009 31.50770446 7.96540687 33.30262295 8.3203125 35.09765625 C8.48902863 35.94457535 8.65774475 36.79149445 8.83157349 37.66407776 C8.98528412 38.45177048 9.13899475 39.2394632 9.29736328 40.05102539 C9.43345001 40.74289444 9.56953674 41.43476349 9.70974731 42.14759827 C10 44 10 44 10 47 C11.41925781 47.23783203 11.41925781 47.23783203 12.8671875 47.48046875 C22.7613798 49.20273952 32.32921644 51.61865067 41.97021484 54.41552734 C44.84720975 55.24395239 47.73528098 56.02979048 50.625 56.8125 C51.48351562 57.04582031 52.34203125 57.27914062 53.2265625 57.51953125 C54.10441406 57.75736328 54.10441406 57.75736328 55 58 C55 58.33 55 58.66 55 59 C36.85 59 18.7 59 0 59 C0 39.53 0 20.06 0 0 Z " fill="#064269" transform="translate(382,170)"/>
<path d="M0 0 C17.49 0 34.98 0 53 0 C53 28.71 53 57.42 53 87 C50.58950552 83.38425827 50.4369001 80.32810294 50.0625 76.125 C49.36328753 69.07286019 48.4765887 62.07257479 47.4375 55.0625 C46.40628148 48.05466992 45.48026925 41.07155062 45 34 C45.66 33.67 46.32 33.34 47 33 C47.99 41.25 48.98 49.5 50 58 C50.33 39.85 50.66 21.7 51 3 C35.5109662 2.22162347 35.5109662 2.22162347 27 5 C24.66784156 5.07403678 22.33139212 5.09515886 20 5 C20 4.67 20 4.34 20 4 C18.80761719 3.87882812 17.61523438 3.75765625 16.38671875 3.6328125 C14.82026592 3.46397327 13.25386212 3.29467868 11.6875 3.125 C10.90181641 3.04636719 10.11613281 2.96773438 9.30664062 2.88671875 C8.1706543 2.76103516 8.1706543 2.76103516 7.01171875 2.6328125 C6.31522217 2.55949707 5.61872559 2.48618164 4.90112305 2.41064453 C3 2 3 2 0 0 Z " fill="#38A5C2" transform="translate(176,382)"/>
<path d="M0 0 C0.33 0 0.66 0 1 0 C1 35.97 1 71.94 1 109 C36.07879571 108.63144852 36.07879571 108.63144852 71.1574707 108.25170898 C77.93591309 108.18371582 77.93591309 108.18371582 81.10734558 108.1532135 C83.32640024 108.13089413 85.54543495 108.10653592 87.76445007 108.08058167 C91.12199048 108.04170416 94.47953697 108.00925897 97.8371582 107.97827148 C98.82877866 107.96530501 99.82039911 107.95233854 100.84206867 107.93897915 C102.1959105 107.9284506 102.1959105 107.9284506 103.57710266 107.91770935 C104.75653678 107.90526515 104.75653678 107.90526515 105.95979786 107.89256954 C108 108 108 108 111 109 C112.3930625 109.36491312 113.78909448 109.71862979 115.1875 110.0625 C117.0746875 110.5265625 117.0746875 110.5265625 119 111 C119.12375 111.804375 119.2475 112.60875 119.375 113.4375 C119.684375 114.7059375 119.684375 114.7059375 120 116 C120.66 116.33 121.32 116.66 122 117 C121.505 118.485 121.505 118.485 121 120 C120.2265625 118.8553125 120.2265625 118.8553125 119.4375 117.6875 C116.04152966 113.94322501 112.56902698 112.30289418 107.60647774 111.71779823 C104.76979306 111.59184143 101.94716591 111.56359941 99.10766602 111.56762695 C98.01648185 111.55735316 96.92529768 111.54707937 95.80104733 111.53649426 C92.28527655 111.50671619 88.76978548 111.49708132 85.25390625 111.48828125 C83.07677235 111.47280892 80.89964745 111.45601095 78.72253418 111.43786621 C70.66928878 111.38002077 62.61587577 111.34780328 54.5625 111.3125 C27.5540625 111.1578125 27.5540625 111.1578125 0 111 C0 74.37 0 37.74 0 0 Z " fill="#EFFCFD" transform="translate(367,134)"/>
<path d="M0 0 C1.03460861 -0.00043808 2.06921722 -0.00087616 3.13517761 -0.00132751 C6.54953993 0.00075987 9.96340917 0.0240892 13.37768555 0.04760742 C15.74708284 0.05320354 18.11648361 0.05747356 20.48588562 0.06047058 C26.71828822 0.07191805 32.95048066 0.10138469 39.18280029 0.13458252 C45.54395708 0.16528533 51.90514787 0.17897639 58.26635742 0.1940918 C70.74496532 0.22625423 83.22341732 0.27744965 95.7019043 0.34057617 C95.96237549 1.21447998 96.22284668 2.08838379 96.49121094 2.98876953 C97.01509399 4.72332397 97.01509399 4.72332397 97.54956055 6.49291992 C98.06401733 8.20596313 98.06401733 8.20596313 98.58886719 9.95361328 C100.87415567 16.9077276 103.30847104 23.30261833 109.7019043 27.34057617 C111.1869043 28.33057617 111.1869043 28.33057617 112.7019043 29.34057617 C111.3819043 29.67057617 110.0619043 30.00057617 108.7019043 30.34057617 C108.7019043 29.68057617 108.7019043 29.02057617 108.7019043 28.34057617 C108.1450293 28.27870117 107.5881543 28.21682617 107.0144043 28.15307617 C103.62922347 26.96368831 101.95305245 25.09197947 99.7019043 22.34057617 C99.3894043 19.52807617 99.3894043 19.52807617 99.7019043 17.34057617 C99.0419043 17.34057617 98.3819043 17.34057617 97.7019043 17.34057617 C96.7119043 12.39057617 96.7119043 12.39057617 95.7019043 7.34057617 C94.7119043 7.34057617 93.7219043 7.34057617 92.7019043 7.34057617 C92.7019043 5.69057617 92.7019043 4.04057617 92.7019043 2.34057617 C80.34044238 2.44830787 67.97903629 2.56098706 55.61767673 2.67991543 C49.877298 2.73498945 44.13691404 2.78838388 38.39648438 2.83789062 C32.85270405 2.88576404 27.30898214 2.93811373 21.76527214 2.99351692 C19.65429077 3.01383681 17.54329344 3.0325663 15.4322834 3.04965019 C12.46684152 3.07392525 9.50150767 3.10394607 6.53613281 3.13525391 C5.6708194 3.14100937 4.80550598 3.14676483 3.91397095 3.1526947 C-7.30709204 3.00037242 -7.30709204 3.00037242 -17.2980957 7.34057617 C-17.2980957 6.68057617 -17.2980957 6.02057617 -17.2980957 5.34057617 C-16.6380957 5.34057617 -15.9780957 5.34057617 -15.2980957 5.34057617 C-15.2980957 4.68057617 -15.2980957 4.02057617 -15.2980957 3.34057617 C-10.71985629 -0.61455695 -5.71366234 -0.06332353 0 0 Z " fill="#39A5C1" transform="translate(143.298095703125,244.659423828125)"/>
<path d="M0 0 C0.33 0 0.66 0 1 0 C1.01030746 1.26676071 1.02061493 2.53352142 1.03123474 3.83866882 C1.12895653 15.77195335 1.23168955 27.7051856 1.33933926 39.63838482 C1.39452269 45.77347211 1.44793545 51.9085642 1.49731445 58.04370117 C1.54502544 63.9635259 1.5973708 69.8832931 1.65294075 75.80304909 C1.67333376 78.06247337 1.69205186 80.3219134 1.70907402 82.58136559 C1.73318554 85.74399893 1.76323104 88.90652407 1.79467773 92.0690918 C1.8004332 93.00489075 1.80618866 93.9406897 1.81211853 94.90484619 C1.85911047 99.05790359 1.95048264 102.95133565 3 107 C3.99 107.33 4.98 107.66 6 108 C3 109 3 109 0 108 C-0.144375 106.88625 -0.28875 105.7725 -0.4375 104.625 C-0.78372035 101.17857953 -0.78372035 101.17857953 -2 99 C-2.09852526 96.16759415 -2.13627967 93.35976861 -2.12939453 90.52709961 C-2.13114685 89.6505925 -2.13289917 88.77408539 -2.13470459 87.87101746 C-2.13911713 84.96477293 -2.13618746 82.05858893 -2.1328125 79.15234375 C-2.13348565 77.13977547 -2.13445577 75.12720728 -2.13571167 73.11463928 C-2.13718778 68.89371976 -2.13503662 64.67282137 -2.13037109 60.4519043 C-2.12467021 55.02863097 -2.12795564 49.60540709 -2.13394356 44.18213558 C-2.13754838 40.02588017 -2.13641101 35.86963657 -2.13381577 31.71338081 C-2.13314647 29.71299801 -2.13397502 27.71261416 -2.13629532 25.71223259 C-2.13882095 22.92262787 -2.13498269 20.13310449 -2.12939453 17.34350586 C-2.13141876 16.50867676 -2.13344299 15.67384766 -2.13552856 14.8137207 C-2.11426321 9.11426321 -2.11426321 9.11426321 -1 8 C-0.76924918 6.65252916 -0.58846937 5.29622435 -0.4375 3.9375 C-0.293125 2.638125 -0.14875 1.33875 0 0 Z " fill="#F4FEFB" transform="translate(123,255)"/>
<path d="M0 0 C0.81427227 2.85693425 1.12390846 5.3863319 1.12025452 8.35333252 C1.12162918 9.21707489 1.12300385 10.08081726 1.12442017 10.97073364 C1.12082489 11.91012787 1.11722961 12.84952209 1.11352539 13.81738281 C1.11367142 14.81283112 1.11381744 15.80827942 1.1139679 16.83389282 C1.11327132 20.12365906 1.1054908 23.41336865 1.09765625 26.703125 C1.09579117 28.98427296 1.09436769 31.26542132 1.09336853 33.54656982 C1.08955048 39.5503856 1.07972624 45.55417718 1.06866455 51.5579834 C1.05843515 57.6844856 1.05386763 63.81099172 1.04882812 69.9375 C1.03810336 81.95834396 1.02103545 93.97916997 1 106 C1.66 106 2.32 106 3 106 C3.33 106.66 3.66 107.32 4 108 C5.65 108 7.3 108 9 108 C8.67 108.99 8.34 109.98 8 111 C8.99 111.33 9.98 111.66 11 112 C11 112.66 11 113.32 11 114 C46.97 114 82.94 114 120 114 C120 114.33 120 114.66 120 115 C105.51800914 115.11694293 91.03609179 115.20470885 76.55372524 115.25906086 C69.82886889 115.2848128 63.10430638 115.31990484 56.37963867 115.37719727 C49.8892359 115.43154656 43.39913825 115.46142724 36.90852547 115.47438622 C34.43298604 115.48362067 31.9574632 115.50165344 29.48205376 115.52865028 C26.01297874 115.56497743 22.54516253 115.56994354 19.07592773 115.56762695 C18.05381195 115.58560333 17.03169617 115.60357971 15.97860718 115.62210083 C10.42641036 115.58201499 6.61161922 115.06023336 2.30106926 111.38632965 C-2.01590344 106.78646134 -1.27829356 100.93877625 -1.24291992 95.0090332 C-1.24481827 94.00689789 -1.24671661 93.00476257 -1.24867249 91.97225952 C-1.25237262 88.66502014 -1.2416885 85.35800106 -1.23046875 82.05078125 C-1.22927663 79.75343349 -1.22882386 77.45608524 -1.2290802 75.15873718 C-1.22751676 70.3478998 -1.21923617 65.53713699 -1.20581055 60.72631836 C-1.18879229 54.54879157 -1.1849971 48.3713465 -1.18575573 42.19379902 C-1.18548434 37.45246089 -1.18000868 32.71114074 -1.17275429 27.96980858 C-1.16956489 25.69114506 -1.16759958 23.41247949 -1.16686058 21.13381386 C-1.16470152 17.95676799 -1.15596749 14.77981026 -1.14526367 11.6027832 C-1.14571686 10.65470291 -1.14617004 9.70662262 -1.14663696 8.72981262 C-1.14237198 7.86763123 -1.13810699 7.00544983 -1.13371277 6.11714172 C-1.13203692 5.36592198 -1.13036108 4.61470224 -1.12863445 3.84071827 C-1 2 -1 2 0 0 Z " fill="#41A6BD" transform="translate(125,252)"/>
<path d="M0 0 C0.66 0 1.32 0 2 0 C2.64690922 1.6037331 3.29248764 3.20800306 3.9375 4.8125 C4.29714844 5.70582031 4.65679687 6.59914063 5.02734375 7.51953125 C6.66767274 11.70269956 7.12837867 14.83138009 7.1328125 19.3203125 C7.13410156 20.5784375 7.13539063 21.8365625 7.13671875 23.1328125 C7.13285156 24.45023437 7.12898438 25.76765625 7.125 27.125 C7.13080078 29.06632812 7.13080078 29.06632812 7.13671875 31.046875 C7.13115619 36.50931177 7.10998505 41.82484661 6.30859375 47.234375 C5.58430369 50.86227235 5.58430369 50.86227235 7.32788086 52.70996094 C9.13071549 54.29485848 11.02795564 55.6319397 13 57 C14.45410405 58.18830009 15.89185387 59.39689566 17.3125 60.625 C17.96863281 61.17414063 18.62476563 61.72328125 19.30078125 62.2890625 C21.07803333 64.07857149 22.00899311 65.69603475 23 68 C21.515 68.495 21.515 68.495 20 69 C20 67.68 20 66.36 20 65 C17.64632287 64.3121764 17.64632287 64.3121764 15 64 C13.515 64.99 13.515 64.99 12 66 C10.95550089 62.86650268 11.06576355 62.01031744 12 59 C7.36960931 55.66050716 7.36960931 55.66050716 2 54 C1.78422782 49.46878417 2.55076502 46.26245583 4 42 C5.38327165 34.39200594 5.09027619 26.70356834 5 19 C4.36578125 18.87753906 3.7315625 18.75507813 3.078125 18.62890625 C1 18 1 18 -0.25 15.9375 C-0.4975 15.298125 -0.745 14.65875 -1 14 C-4.08089673 16.77280706 -5.68775452 19.06326356 -7 23 C-7.66 22.67 -8.32 22.34 -9 22 C-6.19827683 14.5708406 -3.33402609 7.20820167 0 0 Z " fill="#119EC1" transform="translate(375,310)"/>
<path d="M0 0 C0.33 0 0.66 0 1 0 C2.08981831 4.42440618 2.16480769 8.76186155 2.18945312 13.29101562 C2.19774643 14.11276779 2.20603973 14.93451996 2.21458435 15.78117371 C2.23193774 17.55992241 2.24711727 19.33869337 2.26036072 21.11747742 C2.2814558 23.93372428 2.30847263 26.74985964 2.33703613 29.56604004 C2.40673757 36.55908629 2.46621495 43.55221288 2.52606201 50.54534912 C2.57705743 56.45855939 2.63190457 62.3717096 2.69187927 68.28483582 C2.71840096 71.05726318 2.73924598 73.82969638 2.7598877 76.60217285 C2.776495 78.30444611 2.79336721 80.0067168 2.81054688 81.70898438 C2.81473129 82.47796555 2.81891571 83.24694672 2.82322693 84.03923035 C2.86825094 87.89670427 3.23575111 91.17875553 4 95 C6.97 93.35 9.94 91.7 13 90 C11.84116937 94.63532252 10.58017798 95.66130714 7.0625 98.75 C6.16660156 99.54921875 5.27070313 100.3484375 4.34765625 101.171875 C2 103 2 103 0 103 C0 69.01 0 35.02 0 0 Z " fill="#305772" transform="translate(245,134)"/>
<path d="M0 0 C0.33 0 0.66 0 1 0 C1 1.65 1 3.3 1 5 C0.01 5 -0.98 5 -2 5 C-5.52115858 8.00586708 -7.60865582 10.57299578 -9 15 C-9.99 15 -10.98 15 -12 15 C-12 15.66 -12 16.32 -12 17 C-13.98 17 -15.96 17 -18 17 C-18 16.01 -18 15.02 -18 14 C-18.90766113 14.03552979 -19.81532227 14.07105957 -20.75048828 14.10766602 C-24.13852401 14.23737542 -27.52667086 14.36159658 -30.91503906 14.48217773 C-32.37768495 14.53533842 -33.84025455 14.59064511 -35.30273438 14.64819336 C-37.41259314 14.73083429 -39.52261151 14.8055913 -41.6328125 14.87890625 C-42.90012207 14.9260376 -44.16743164 14.97316895 -45.47314453 15.02172852 C-48.78436012 15.00132853 -51.75599388 14.62251592 -55 14 C-60.7216386 13.62495357 -65.64948891 13.74089532 -71 16 C-72.216875 16.391875 -73.43375 16.78375 -74.6875 17.1875 C-79.05928741 19.57961009 -79.51275171 21.36328473 -81 26 C-81.66 26 -82.32 26 -83 26 C-82.938125 26.886875 -82.87625 27.77375 -82.8125 28.6875 C-83.01951982 32.34485017 -83.916074 34.04777151 -86 37 C-87.63035864 33.73928272 -86.07954532 31.0135131 -85.0078125 27.66796875 C-82.25523344 20.38110248 -78.62754661 16.05016737 -72 12 C-69.08735686 11.02911895 -67.20679357 10.87118582 -64.17578125 10.8671875 C-62.75555664 10.86525391 -62.75555664 10.86525391 -61.30664062 10.86328125 C-59.82454102 10.86908203 -59.82454102 10.86908203 -58.3125 10.875 C-56.8594043 10.86919922 -56.8594043 10.86919922 -55.37695312 10.86328125 C-51.19195511 10.86894048 -47.08392294 10.91365835 -42.93359375 11.48046875 C-29.96593087 13.19317894 -16.97923122 14.0868531 -6 6 C-5.44570313 5.43925781 -4.89140625 4.87851562 -4.3203125 4.30078125 C-3 3 -3 3 -1 3 C-0.67 2.01 -0.34 1.02 0 0 Z " fill="#E0F8FA" transform="translate(439,439)"/>
<path d="M0 0 C0.66 0 1.32 0 2 0 C2 36.96 2 73.92 2 112 C2.66 112 3.32 112 4 112 C4.33 112.99 4.66 113.98 5 115 C5.66 115.33 6.32 115.66 7 116 C7 116.99 7 117.98 7 119 C4.16080345 118.02096671 3.07542048 117.11235456 1.38456726 114.59347534 C-0.50496934 109.68941371 -0.39587048 105.33983752 -0.34057617 100.12939453 C-0.34101425 99.04587204 -0.34145233 97.96234955 -0.34190369 96.84599304 C-0.33981843 93.27474776 -0.31649901 89.70397549 -0.29296875 86.1328125 C-0.28737188 83.65274309 -0.28310221 81.17267035 -0.28010559 78.69259644 C-0.26866407 72.17251389 -0.2392025 65.65263257 -0.20599365 59.13262939 C-0.17365232 52.47647904 -0.16159704 45.82027005 -0.14648438 39.1640625 C-0.11433243 26.10928927 -0.06372274 13.05465535 0 0 Z " fill="#39A5C2" transform="translate(245,367)"/>
<path d="M0 0 C3 0 3 0 4.92184448 0.49095249 C7.10779239 1.02640392 9.00261674 1.13286619 11.25048828 1.14476013 C12.0916217 1.15165863 12.93275513 1.15855713 13.79937744 1.16566467 C14.71378601 1.16827805 15.62819458 1.17089142 16.5703125 1.17358398 C17.53982849 1.180271 18.50934448 1.18695801 19.50823975 1.19384766 C21.61223092 1.20788909 23.71623725 1.21978603 25.82025146 1.22979546 C29.1486158 1.24621022 32.47686742 1.26944702 35.80517578 1.29469299 C45.26784656 1.3654659 54.73056249 1.4256616 64.19335938 1.47680664 C69.98166678 1.50856956 75.76984306 1.5498343 81.55804443 1.59700203 C83.7652552 1.61303345 85.97249615 1.62534973 88.17974854 1.63390923 C91.26319733 1.64604176 94.34633672 1.67018189 97.4296875 1.69702148 C98.80130035 1.6979052 98.80130035 1.6979052 100.20062256 1.69880676 C101.04175598 1.70852509 101.8828894 1.71824341 102.74951172 1.72825623 C103.47806366 1.73248816 104.2066156 1.7367201 104.95724487 1.74108028 C107.30972945 2.03925828 108.94888703 2.83744151 111 4 C108.70126844 5.14936578 107.43756966 5.11876497 104.88285828 5.10679626 C103.58958618 5.10452278 103.58958618 5.10452278 102.27018738 5.10220337 C100.84806694 5.09209732 100.84806694 5.09209732 99.3972168 5.08178711 C98.40033844 5.07872055 97.40346008 5.07565399 96.37637329 5.07249451 C94.20630282 5.06532757 92.03623886 5.05593147 89.86618614 5.04459953 C86.4327438 5.02726055 82.99934767 5.01692614 79.56587219 5.00868225 C69.80176411 4.9841844 60.03771812 4.948669 50.27368164 4.90405273 C44.30621058 4.87727683 38.33877577 4.8602283 32.37125587 4.84918404 C30.09505692 4.84297126 27.81886507 4.83296225 25.54269981 4.81910515 C22.35874206 4.79989898 19.17497466 4.79299399 15.9909668 4.78881836 C14.5779554 4.77567596 14.5779554 4.77567596 13.13639832 4.76226807 C8.64668735 4.76899339 5.07374933 4.85665577 1 7 C0 2.25 0 2.25 0 0 Z " fill="#D8ECF4" transform="translate(248,120)"/>
<path d="M0 0 C36.3 0 72.6 0 110 0 C110 0.66 110 1.32 110 2 C55.55 2.495 55.55 2.495 0 3 C0 2.01 0 1.02 0 0 Z " fill="#2D5671" transform="translate(367,245)"/>
<path d="M0 0 C0.33 28.05 0.66 56.1 1 85 C0.01 85.495 0.01 85.495 -1 86 C-1 58.28 -1 30.56 -1 2 C-17.5 2.33 -34 2.66 -51 3 C-41.43 5.31 -31.86 7.62 -22 10 C-22 10.33 -22 10.66 -22 11 C-29.11246386 11.41033445 -35.17537975 9.91892263 -42 8 C-42.62938477 7.82355957 -43.25876953 7.64711914 -43.90722656 7.46533203 C-47.94421537 6.33086434 -51.97408047 5.17323395 -56 4 C-56 3.01 -56 2.02 -56 1 C-48.98911216 0.85673498 -41.97820553 0.71441786 -34.96728516 0.57275391 C-32.58316616 0.52446877 -30.19905152 0.47596814 -27.81494141 0.42724609 C-24.38445139 0.35717773 -20.95394636 0.28788907 -17.5234375 0.21875 C-15.92935562 0.18593933 -15.92935562 0.18593933 -14.30307007 0.15246582 C-13.30248566 0.13244507 -12.30190125 0.11242432 -11.27099609 0.09179688 C-10.39607513 0.07403198 -9.52115417 0.05626709 -8.61972046 0.03796387 C-5.74675409 -0.00366993 -2.87326802 0 0 0 Z " fill="#DBFCFE" transform="translate(230,380)"/>
<path d="M0 0 C3.3 0.33 6.6 0.66 10 1 C10.18175781 2.51207031 10.36351562 4.02414062 10.55078125 5.58203125 C11.73410865 15.30551518 12.93239109 25.01745567 14.5 34.6875 C15.60488981 41.51492668 16.67939653 48.34499767 17.6875 55.1875 C17.88472656 56.47950317 17.88472656 56.47950317 18.0859375 57.79760742 C18.83239017 62.92495473 19.12550383 67.81848478 19 73 C18.34 73 17.68 73 17 73 C15.77085408 63.63873691 14.63200047 54.46576558 15 45 C14.34 45 13.68 45 13 45 C13 41.04 13 37.08 13 33 C12.34 33 11.68 33 11 33 C10.87625 31.88625 10.7525 30.7725 10.625 29.625 C10.3534187 25.96896323 10.3534187 25.96896323 8 24 C7.77294922 21.84521484 7.77294922 21.84521484 7.8046875 19.2109375 C7.81113281 18.26992188 7.81757813 17.32890625 7.82421875 16.359375 C7.84097656 15.37453125 7.85773438 14.3896875 7.875 13.375 C7.88402344 12.38242187 7.89304688 11.38984375 7.90234375 10.3671875 C7.92595884 7.91121866 7.95889201 5.45572832 8 3 C5.36 2.34 2.72 1.68 0 1 C0 0.67 0 0.34 0 0 Z " fill="#C9F4FA" transform="translate(208,391)"/>
<path d="M0 0 C2.73631454 1.36815727 2.76457891 2.64885908 3.7265625 5.515625 C4.0359375 6.43730469 4.3453125 7.35898437 4.6640625 8.30859375 C4.98117187 9.27925781 5.29828125 10.24992187 5.625 11.25 C5.94984375 12.20519531 6.2746875 13.16039062 6.609375 14.14453125 C6.91617187 15.07136719 7.22296875 15.99820312 7.5390625 16.953125 C7.95986084 18.22397949 7.95986084 18.22397949 8.38916016 19.52050781 C9.02613348 22.10607978 9.11084885 24.34792652 9 27 C9.66 27 10.32 27 11 27 C10.67 27.99 10.34 28.98 10 30 C10 29.34 10 28.68 10 28 C9.01 27.67 8.02 27.34 7 27 C6.26953125 25.07421875 6.26953125 25.07421875 5.8125 22.6875 C5.65394531 21.90761719 5.49539063 21.12773437 5.33203125 20.32421875 C5 18 5 18 5 14 C2.69 14 0.38 14 -2 14 C-2.99 15.98 -3.98 17.96 -5 20 C-5.99 19.67 -6.98 19.34 -8 19 C-6.00386732 12.2813095 -3.2708579 6.19265192 0 0 Z " fill="#069EBF" transform="translate(355,306)"/>
<path d="M0 0 C0.33 0 0.66 0 1 0 C1.08131463 1.43655854 1.13933559 2.8744483 1.1875 4.3125 C1.22230469 5.11300781 1.25710938 5.91351563 1.29296875 6.73828125 C0.93801608 9.47851584 0.10633718 10.29171079 -2 12 C-1.01 12 -0.02 12 1 12 C0.855625 12.59425781 0.71125 13.18851562 0.5625 13.80078125 C-1.44782388 22.7774358 -2.83456384 31.76333569 2 40 C2.99 40.33 3.98 40.66 5 41 C5.12375 42.093125 5.2475 43.18625 5.375 44.3125 C5.75464801 48.07381802 5.75464801 48.07381802 8 51 C7.67 51.99 7.34 52.98 7 54 C5.53779721 51.43964079 4.08014847 48.8768644 2.625 46.3125 C2.2125 45.59126953 1.8 44.87003906 1.375 44.12695312 C-2.56174527 37.174153 -4.38779503 32.08898402 -4.375 24.0625 C-4.37628906 23.22871826 -4.37757813 22.39493652 -4.37890625 21.53588867 C-4.24980639 13.86985073 -2.63733957 7.2173623 0 0 Z " fill="#D2F7FB" transform="translate(271,338)"/>
<path d="M0 0 C0.33 0 0.66 0 1 0 C1.01030746 1.26676071 1.02061493 2.53352142 1.03123474 3.83866882 C1.12895653 15.77195335 1.23168955 27.7051856 1.33933926 39.63838482 C1.39452269 45.77347211 1.44793545 51.9085642 1.49731445 58.04370117 C1.54502544 63.9635259 1.5973708 69.8832931 1.65294075 75.80304909 C1.67333376 78.06247337 1.69205186 80.3219134 1.70907402 82.58136559 C1.73318554 85.74399893 1.76323104 88.90652407 1.79467773 92.0690918 C1.8004332 93.00489075 1.80618866 93.9406897 1.81211853 94.90484619 C1.85911047 99.05790359 1.95048264 102.95133565 3 107 C3.99 107.33 4.98 107.66 6 108 C3 109 3 109 0 108 C0 72.36 0 36.72 0 0 Z " fill="#BEEEFB" transform="translate(123,255)"/>
<path d="M0 0 C0.33 0 0.66 0 1 0 C1.19607616 5.68620859 0.89608907 8.3117328 -1 14 C-47.53 13.505 -47.53 13.505 -95 13 C-95 12.67 -95 12.34 -95 12 C-64.31 12 -33.62 12 -2 12 C-1.67 9.36 -1.34 6.72 -1 4 C-0.69830934 2.65915264 -0.38482319 1.3193938 0 0 Z " fill="#B7EEF1" transform="translate(351,476)"/>
<path d="M0 0 C1.36721695 -0.002062 1.36721695 -0.002062 2.76205444 -0.00416565 C4.26608826 0.00122726 4.26608826 0.00122726 5.80050659 0.00672913 C6.85418427 0.0065831 7.90786194 0.00643707 8.99346924 0.00628662 C12.48890211 0.00698531 15.98428221 0.01477571 19.47970581 0.02259827 C21.89823375 0.0244626 24.31676207 0.02588643 26.73529053 0.02688599 C33.11067746 0.03070996 39.48604172 0.04053923 45.86141968 0.05158997 C52.36308485 0.06180667 58.86475368 0.06638416 65.36642456 0.07142639 C78.13075717 0.08216159 90.89507403 0.09904522 103.65939331 0.12025452 C103.65939331 0.45025452 103.65939331 0.78025452 103.65939331 1.12025452 C102.34252029 1.12834137 101.02564728 1.13642822 99.66886902 1.14476013 C87.26462916 1.22221117 74.86049912 1.309948 62.45640278 1.4077816 C56.07918286 1.45774871 49.70197955 1.5040789 43.32467651 1.54212952 C37.17138934 1.5789768 31.01824091 1.62533559 24.86507225 1.67831802 C22.51634337 1.69686486 20.16758475 1.71197174 17.81881142 1.72359848 C14.53155912 1.74045567 11.24462476 1.76949013 7.95748901 1.80140686 C6.49768616 1.80464714 6.49768616 1.80464714 5.00839233 1.80795288 C0.46894122 1.86433647 -3.22730934 1.94863475 -7.34060669 4.12025452 C-7.01060669 3.13025452 -6.68060669 2.14025452 -6.34060669 1.12025452 C-3.992264 -0.05391683 -2.61703191 -0.003036 0 0 Z " fill="#D9FEFE" transform="translate(135.34060668945313,243.87974548339844)"/>
<path d="M0 0 C0.87078186 -0.00412399 1.74156372 -0.00824799 2.63873291 -0.01249695 C4.06724327 0.00368179 4.06724327 0.00368179 5.52461243 0.02018738 C7.0321962 0.01953026 7.0321962 0.01953026 8.57023621 0.01885986 C11.89807952 0.0209528 15.22542139 0.04430805 18.55317688 0.0677948 C20.85817184 0.07338895 23.16317037 0.0776599 25.46817017 0.08065796 C31.53949301 0.09212094 37.61060109 0.12160081 43.68183899 0.1547699 C49.87525019 0.18543937 56.06869603 0.19915662 62.26216125 0.21427917 C74.41785466 0.24646896 86.57338854 0.297683 98.72895813 0.36076355 C96.06582597 3.02389571 94.09731133 2.59258534 90.47669983 2.59849548 C89.59878784 2.58973389 88.72087585 2.58097229 87.81636047 2.57194519 C86.89257599 2.57063095 85.9687915 2.56931671 85.01701355 2.56796265 C81.94953848 2.56144895 78.88230935 2.54099793 75.81489563 2.5209198 C73.68457815 2.51465013 71.5542574 2.5094098 69.42393494 2.50515747 C63.80123097 2.49182534 58.17863466 2.4673905 52.5559845 2.43980408 C43.57721289 2.39678192 34.59841444 2.36689527 25.61957169 2.34376335 C22.48658892 2.33357169 19.35369681 2.31651074 16.2207489 2.29876709 C14.28647441 2.29193374 12.35219911 2.28532513 10.41792297 2.27897644 C9.55215637 2.27223907 8.68638977 2.26550171 7.79438782 2.25856018 C2.67963992 2.24905838 -2.20829197 2.62264594 -7.27104187 3.36076355 C-4.944706 0.57334805 -3.6088847 -0.01318715 0 0 Z " fill="#1B445E" transform="translate(258.2710418701172,123.63923645019531)"/>
<path d="M0 0 C1.32 0.33 2.64 0.66 4 1 C4 1.66 4 2.32 4 3 C33.04 3 62.08 3 92 3 C92 3.33 92 3.66 92 4 C90.84155075 4.01030746 89.6831015 4.02061493 88.48954773 4.03123474 C77.5857654 4.1288835 66.68204122 4.23160948 55.77835369 4.33933926 C50.17232429 4.39456343 44.56628967 4.4479827 38.96020508 4.49731445 C33.55260933 4.54496535 28.14507769 4.59730854 22.73755836 4.65294075 C20.67185876 4.67336099 18.60614158 4.69207462 16.540411 4.70907402 C13.65277104 4.73312524 10.7652525 4.76317898 7.87768555 4.79467773 C7.01885269 4.8004332 6.16001984 4.80618866 5.27516174 4.81211853 C1.94087273 4.85360986 -0.81551223 4.93850408 -4 6 C-4 4.68 -4 3.36 -4 2 C-2.68 1.67 -1.36 1.34 0 1 C0 0.67 0 0.34 0 0 Z " fill="#EDFFF7" transform="translate(132,240)"/>
<path d="M0 0 C0.33 0 0.66 0 1 0 C1.04628183 13.37770529 1.08184806 26.75539163 1.10362434 40.13316059 C1.11407433 46.34458043 1.12825572 52.55594561 1.15087891 58.76733398 C1.17256391 64.75843533 1.18455946 70.74948401 1.18975449 76.74062157 C1.19345806 79.02963274 1.20068991 81.31864094 1.21146011 83.60762978 C1.22591724 86.80659912 1.22798036 90.0053491 1.22705078 93.2043457 C1.23783661 94.63285606 1.23783661 94.63285606 1.24884033 96.09022522 C1.246091 96.96100708 1.24334167 97.83178894 1.24050903 98.72895813 C1.24235262 99.48575017 1.24419621 100.24254221 1.24609566 101.02226734 C1 103 1 103 -1 106 C-1.5625 104.0625 -1.5625 104.0625 -2 102 C-1.505 101.505 -1.505 101.505 -1 101 C-0.87457722 97.86510797 -0.81386331 94.75120163 -0.79467773 91.61499023 C-0.78477814 90.62973358 -0.77487854 89.64447693 -0.76467896 88.62936401 C-0.73296006 85.3557988 -0.70826563 82.08221905 -0.68359375 78.80859375 C-0.66303318 76.54557405 -0.64203696 74.28255827 -0.62062073 72.01954651 C-0.56530734 66.05025395 -0.51593907 60.08092621 -0.46777344 54.11157227 C-0.4176259 48.02552136 -0.3619047 41.93952184 -0.30664062 35.85351562 C-0.19894578 23.90238759 -0.09752613 11.95121504 0 0 Z " fill="#154863" transform="translate(487,254)"/>
<path d="M0 0 C0.66 0.99 1.32 1.98 2 3 C-2.90934794 7.25476821 -5.63918576 9.13459013 -12.32421875 9.09765625 C-13.35224609 9.09443359 -14.38027344 9.09121094 -15.43945312 9.08789062 C-16.51130859 9.07951172 -17.58316406 9.07113281 -18.6875 9.0625 C-19.77095703 9.05798828 -20.85441406 9.05347656 -21.97070312 9.04882812 C-24.64719085 9.03703743 -27.32356777 9.02058063 -30 9 C-30.33 8.01 -30.66 7.02 -31 6 C-30.44014404 6.00523682 -29.88028809 6.01047363 -29.3034668 6.01586914 C-26.76482263 6.03666691 -24.22619641 6.04966904 -21.6875 6.0625 C-20.80642578 6.07087891 -19.92535156 6.07925781 -19.01757812 6.08789062 C-18.17001953 6.09111328 -17.32246094 6.09433594 -16.44921875 6.09765625 C-15.66893311 6.10289307 -14.88864746 6.10812988 -14.0847168 6.11352539 C-11.8038445 6.08137863 -11.8038445 6.08137863 -9 5 C-9 4.34 -9 3.68 -9 3 C-6.69 3.33 -4.38 3.66 -2 4 C-2 3.34 -2 2.68 -2 2 C-1.34 2 -0.68 2 0 2 C0 1.34 0 0.68 0 0 Z " fill="#204F6A" transform="translate(484,358)"/>
<path d="M0 0 C0.99 0.33 1.98 0.66 3 1 C4.80652021 5.91774946 5.55838049 10.78888973 6 16 C5.67 16.66 5.34 17.32 5 18 C4.01 17.34 3.02 16.68 2 16 C2.10699219 17.13179688 2.21398437 18.26359375 2.32421875 19.4296875 C2.44613108 20.91139121 2.56718016 22.39316612 2.6875 23.875 C2.76033203 24.62136719 2.83316406 25.36773437 2.90820312 26.13671875 C3.07421875 28.3046875 3.07421875 28.3046875 3 32 C2.01 32.66 1.02 33.32 0 34 C-0.79953138 30.71303767 -1.09658936 29.28976808 0 26 C0.09755436 23.07336916 0.13911256 20.17600502 0.125 17.25 C0.12886719 16.46367187 0.13273437 15.67734375 0.13671875 14.8671875 C0.13059077 11.17814112 0.00895699 7.63135143 -0.5703125 3.984375 C-0.71210938 2.99953125 -0.85390625 2.0146875 -1 1 C-0.67 0.67 -0.34 0.34 0 0 Z " fill="#F3FAFB" transform="translate(281,280)"/>
<path d="M0 0 C0.33 0.66 0.66 1.32 1 2 C-2.41649907 11.90152046 -5.93202969 19.87595895 -15.58203125 24.87109375 C-16.77892578 25.42990234 -16.77892578 25.42990234 -18 26 C-18.99 26.66 -19.98 27.32 -21 28 C-20.67 26.35 -20.34 24.7 -20 23 C-17.69 22.34 -15.38 21.68 -13 21 C-13 20.34 -13 19.68 -13 19 C-11.68 18.67 -10.36 18.34 -9 18 C-8.67 16.35 -8.34 14.7 -8 13 C-7.34 13 -6.68 13 -6 13 C-6.33 10.03 -6.66 7.06 -7 4 C-5.35 4 -3.7 4 -2 4 C-2 3.01 -2 2.02 -2 1 C-1.34 0.67 -0.68 0.34 0 0 Z " fill="#D5F4F9" transform="translate(343,332)"/>
<path d="M0 0 C0.33 0 0.66 0 1 0 C1.99 8.25 2.98 16.5 4 25 C4.66 25 5.32 25 6 25 C6 31.93 6 38.86 6 46 C5.67 46 5.34 46 5 46 C0.99156228 21.08292096 0.99156228 21.08292096 -0.3125 8.9375 C-0.40063965 8.14174561 -0.4887793 7.34599121 -0.57958984 6.52612305 C-0.76554305 4.68814187 -0.89000188 2.84408617 -1 1 C-0.67 0.67 -0.34 0.34 0 0 Z " fill="#289CB7" transform="translate(222,415)"/>
<path d="M0 0 C1.6497762 3.2995524 2.44917652 5.48142694 3.125 9 C3.29257812 9.845625 3.46015625 10.69125 3.6328125 11.5625 C4 14 4 14 4 18 C3.34 18 2.68 18 2 18 C1.67 31.53 1.34 45.06 1 59 C0.67 59 0.34 59 0 59 C0 39.53 0 20.06 0 0 Z " fill="#305773" transform="translate(382,170)"/>
<path d="M0 0 C0.33 0 0.66 0 1 0 C1.02912348 3.72915017 1.04684037 7.4582709 1.0625 11.1875 C1.07087891 12.24259766 1.07925781 13.29769531 1.08789062 14.38476562 C1.09111328 15.40634766 1.09433594 16.42792969 1.09765625 17.48046875 C1.10289307 18.41785889 1.10812988 19.35524902 1.11352539 20.32104492 C1 23 1 23 0.42749023 25.73950195 C-0.26605342 28.00209805 -0.26605342 28.00209805 1.0625 29.6875 C3.56803817 31.38480005 6.10571935 32.16387448 9 33 C9.33 34.98 9.66 36.96 10 39 C8.55962331 38.06692579 7.12281015 37.12834923 5.6875 36.1875 C4.88699219 35.66542969 4.08648437 35.14335937 3.26171875 34.60546875 C1.2087101 33.14815173 -0.41643437 31.94731879 -2 30 C-2.09399414 28.12719727 -2.09399414 28.12719727 -1.72265625 26.00390625 C-0.92533823 20.65048529 -0.66690477 15.34167473 -0.4375 9.9375 C-0.39431641 8.97650391 -0.35113281 8.01550781 -0.30664062 7.02539062 C-0.20178868 4.68369723 -0.09962212 2.34192071 0 0 Z " fill="#B9E8F1" transform="translate(382,331)"/>
<path d="M0 0 C0.33 0.66 0.66 1.32 1 2 C2.65 2 4.3 2 6 2 C5.67 3.65 5.34 5.3 5 7 C3.68 7 2.36 7 1 7 C1 8.32 1 9.64 1 11 C-1.97 10.505 -1.97 10.505 -5 10 C-5.68359375 8.203125 -5.68359375 8.203125 -6 6 C-4.78515625 4.296875 -4.78515625 4.296875 -3.0625 2.75 C-2.21365234 1.96882813 -2.21365234 1.96882813 -1.34765625 1.171875 C-0.90292969 0.78515625 -0.45820313 0.3984375 0 0 Z " fill="#11A3C7" transform="translate(297,387)"/>
<path d="M0 0 C0.33 0.99 0.66 1.98 1 3 C14.86 3 28.72 3 43 3 C43 2.34 43 1.68 43 1 C44.8871875 1.185625 44.8871875 1.185625 46.8125 1.375 C47.87404297 1.47941406 47.87404297 1.47941406 48.95703125 1.5859375 C51 2 51 2 54 4 C36.18 4 18.36 4 0 4 C0 2.68 0 1.36 0 0 Z " fill="#12405F" transform="translate(383,225)"/>
<path d="M0 0 C5.89965904 4.04548048 10.43329418 8.51995302 15 14 C15.66 14.66 16.32 15.32 17 16 C14 17 14 17 11.9375 16.125 C10.9784375 15.568125 10.9784375 15.568125 10 15 C9.34 14.67 8.68 14.34 8 14 C7.6596875 12.8553125 7.6596875 12.8553125 7.3125 11.6875 C5.40057125 7.77259828 2.85214108 6.92607054 -1 5 C-1.33 5.66 -1.66 6.32 -2 7 C-1.125 2.25 -1.125 2.25 0 0 Z " fill="#DFEDF1" transform="translate(402,320)"/>
<path d="M0 0 C9.23759021 3.88951167 14.55701412 10.11402823 19 19 C19 19.66 19 20.32 19 21 C18.34 21 17.68 21 17 21 C17 20.01 17 19.02 17 18 C16.34 18 15.68 18 15 18 C15 17.34 15 16.68 15 16 C14.01 15.67 13.02 15.34 12 15 C11.67 13.02 11.34 11.04 11 9 C10.236875 8.896875 9.47375 8.79375 8.6875 8.6875 C5.81583516 7.95288806 4.76957906 7.3283935 3 5 C3 4.34 3 3.68 3 3 C2.01 2.67 1.02 2.34 0 2 C0 1.34 0 0.68 0 0 Z " fill="#DAEBF1" transform="translate(333,199)"/>
<path d="M0 0 C1.485 0.99 1.485 0.99 3 2 C3 2.99 3 3.98 3 5 C3.66 5.33 4.32 5.66 5 6 C6.16606751 9.61779919 7.16596188 13.24685094 8.14453125 16.91796875 C8.70985796 18.96077509 9.34976784 20.98261303 10 23 C10.66 23.33 11.32 23.66 12 24 C12 25.32 12 26.64 12 28 C11.34 28 10.68 28 10 28 C9.67 29.32 9.34 30.64 9 32 C8.75765625 30.94941406 8.5153125 29.89882812 8.265625 28.81640625 C6.62089752 21.86915023 4.97440489 15.34609037 1.81640625 8.90625 C0.55660474 5.96470389 0.27014458 3.17419884 0 0 Z " fill="#194868" transform="translate(348,208)"/>
<path d="M0 0 C2.75003466 2.75003466 4.04022187 6.09156214 5.6875 9.5625 C8.80274651 15.9887756 12.22932349 21.63298893 17 27 C16.67 27.66 16.34 28.32 16 29 C15.62488281 28.54109375 15.24976563 28.0821875 14.86328125 27.609375 C12.42782687 24.68928361 10.30659297 22.21802167 7.1875 20 C4.18498392 17.25484244 4.22816762 14.95490548 4 11 C3.34 11 2.68 11 2 11 C0.80712589 7.12315913 0 4.08378077 0 0 Z " fill="#2EA2BD" transform="translate(267,371)"/>
<path d="M0 0 C2.11020894 3.84744094 2.29045844 6.8476648 2.4375 11.25 C2.630485 15.62696311 2.91787582 19.60121632 4.625 23.6875 C6.05206892 27.12543876 6.08046093 27.69378954 5 31 C-0.38647205 24.6341694 -0.26485955 18.06471889 -0.125 10.125 C-0.11597656 9.15046875 -0.10695313 8.1759375 -0.09765625 7.171875 C-0.07421623 4.78099272 -0.04140442 2.39062739 0 0 Z " fill="#174462" transform="translate(359,243)"/>
<path d="M0 0 C0.66 0 1.32 0 2 0 C1.86722656 0.59167969 1.73445313 1.18335938 1.59765625 1.79296875 C1.42105469 2.58316406 1.24445313 3.37335938 1.0625 4.1875 C0.88847656 4.96480469 0.71445312 5.74210937 0.53515625 6.54296875 C0.27025391 7.75919922 0.27025391 7.75919922 0 9 C-0.1753125 9.721875 -0.350625 10.44375 -0.53125 11.1875 C-1.22942728 15.3765637 -1.36969859 19.57402959 -1.5625 23.8125 C-1.60568359 24.69615234 -1.64886719 25.57980469 -1.69335938 26.49023438 C-1.79891536 28.65999623 -1.89991071 30.8299791 -2 33 C-4.42623093 29.36065361 -4.30531917 26.64369757 -4.25 22.4375 C-4.24468262 21.72239258 -4.23936523 21.00728516 -4.23388672 20.27050781 C-4.10634688 13.11213275 -3.42365489 6.38698643 0 0 Z " fill="#1FA0B7" transform="translate(269,338)"/>
<path d="M0 0 C15.52319854 11.27083298 15.52319854 11.27083298 18 17 C17.01 17.33 16.02 17.66 15 18 C15 16.68 15 15.36 15 14 C12.64632287 13.3121764 12.64632287 13.3121764 10 13 C9.01 13.66 8.02 14.32 7 15 C5.95550089 11.86650268 6.06576355 11.01031744 7 8 C6.4946875 7.67386719 5.989375 7.34773438 5.46875 7.01171875 C4.8190625 6.57472656 4.169375 6.13773437 3.5 5.6875 C2.52546875 5.04361328 2.52546875 5.04361328 1.53125 4.38671875 C1.0259375 3.92910156 0.520625 3.47148437 0 3 C0 2.01 0 1.02 0 0 Z " fill="#1EA3C0" transform="translate(380,361)"/>
<path d="M0 0 C3.92582871 1.30860957 6.3987937 2.74849213 9 6 C10.33666455 10.62153954 10.18367148 15.35466233 10.1875 20.125 C10.19974609 20.93582031 10.21199219 21.74664062 10.22460938 22.58203125 C10.22750977 23.75185547 10.22750977 23.75185547 10.23046875 24.9453125 C10.23457764 25.65187988 10.23868652 26.35844727 10.24291992 27.08642578 C10 29 10 29 8 32 C8.01571045 31.43079834 8.0314209 30.86159668 8.04760742 30.27514648 C8.11048439 27.66270126 8.14915532 25.0504159 8.1875 22.4375 C8.21263672 21.54224609 8.23777344 20.64699219 8.26367188 19.72460938 C8.32637741 14.01840558 7.80444539 10.01360756 5 5 C2.43389334 3.19203897 2.43389334 3.19203897 0 2 C0 1.34 0 0.68 0 0 Z " fill="#249EB5" transform="translate(272,277)"/>
<path d="M0 0 C0.33 0 0.66 0 1 0 C1.08131463 1.43655854 1.13933559 2.8744483 1.1875 4.3125 C1.22230469 5.11300781 1.25710938 5.91351563 1.29296875 6.73828125 C0.93801608 9.47851584 0.10633718 10.29171079 -2 12 C-1.01 12 -0.02 12 1 12 C0.86722656 12.6290625 0.73445313 13.258125 0.59765625 13.90625 C-0.50749182 19.26258811 -1.39604212 24.56437906 -2 30 C-2.33 30 -2.66 30 -3 30 C-3.08834684 26.68767302 -3.14083584 23.37565565 -3.1875 20.0625 C-3.21263672 19.13630859 -3.23777344 18.21011719 -3.26367188 17.25585938 C-3.33010773 10.94445326 -2.40207858 5.84135682 0 0 Z " fill="#F0FCF8" transform="translate(271,338)"/>
<path d="M0 0 C0.33 0 0.66 0 1 0 C1.89499166 4.02746247 2.1767686 8.01284127 2.3125 12.125 C2.34988281 13.13820312 2.38726562 14.15140625 2.42578125 15.1953125 C1.8844874 18.76089949 0.81768778 19.81445434 -2 22 C-4.61368825 23.2782271 -7.22767263 24.07589088 -10 25 C-10.33 24.01 -10.66 23.02 -11 22 C-10.37351562 21.88785156 -9.74703125 21.77570313 -9.1015625 21.66015625 C-6.47401711 21.02606406 -4.34827436 20.34800393 -2 19 C1.06973024 13.55036654 0.22775233 6.06074268 0 0 Z " fill="#194560" transform="translate(285,182)"/>
<path d="M0 0 C2.0625 0.4375 2.0625 0.4375 4 1 C2.88200014 2.33920838 1.75538103 3.67122556 0.625 5 C-0.31472656 6.11375 -0.31472656 6.11375 -1.2734375 7.25 C-2.12808594 8.11625 -2.12808594 8.11625 -3 9 C-3.66 9 -4.32 9 -5 9 C-6.98 5.535 -6.98 5.535 -9 2 C-6.06193103 1.02064368 -4.04722362 1 -1 1 C-0.67 0.67 -0.34 0.34 0 0 Z " fill="#E9F8F9" transform="translate(289,391)"/>
<path d="M0 0 C2.68109959 4.02164939 4.42716601 8.35506396 6.3671875 12.7734375 C8.50809191 17.00402851 10.40734038 20.239867 14.75 22.3125 C15.4925 22.539375 16.235 22.76625 17 23 C15.02 23.99 15.02 23.99 13 25 C13 24.34 13 23.68 13 23 C12.1646875 22.9071875 12.1646875 22.9071875 11.3125 22.8125 C7.92731917 21.62311214 6.25114815 19.75140329 4 17 C3.6875 14.1875 3.6875 14.1875 4 12 C3.34 12 2.68 12 2 12 C0.86235649 7.73383684 0 4.43513689 0 0 Z " fill="#38A5C1" transform="translate(239,250)"/>
<path d="M0 0 C0.96035156 0.30679687 1.92070312 0.61359375 2.91015625 0.9296875 C7.36788831 2.20332523 11.83510284 2.67254839 16.4375 3.125 C17.26443359 3.21136719 18.09136719 3.29773438 18.94335938 3.38671875 C20.96166778 3.59671616 22.98076133 3.79914451 25 4 C25.33 5.32 25.66 6.64 26 8 C22.78880318 7.41045489 19.58174687 6.80075131 16.375 6.1875 C15.47136719 6.02185547 14.56773437 5.85621094 13.63671875 5.68554688 C8.64449348 4.71989746 4.45458925 3.58247782 0 1 C0 0.67 0 0.34 0 0 Z " fill="#C9F2F8" transform="translate(250,270)"/>
<path d="M0 0 C0.33 0.66 0.66 1.32 1 2 C0.34 2 -0.32 2 -1 2 C-1.268125 2.9075 -1.53625 3.815 -1.8125 4.75 C-2.90634962 7.74369369 -3.80423486 9.71640425 -6 12 C-6.99 12 -7.98 12 -9 12 C-10.07525194 14.65228812 -11.09456151 17.28368454 -12 20 C-12.99 19.67 -13.98 19.34 -15 19 C-13.55421239 15.8436023 -11.7809434 13.2786121 -9.625 10.5625 C-9.00496094 9.78003906 -8.38492187 8.99757812 -7.74609375 8.19140625 C-7.16988281 7.46824219 -6.59367187 6.74507812 -6 6 C-4.8553125 4.515 -4.8553125 4.515 -3.6875 3 C-2 1 -2 1 0 0 Z " fill="#DCEEF3" transform="translate(273,208)"/>
<path d="M0 0 C0.6875 1.6875 0.6875 1.6875 1 4 C-0.9894935 8.56413214 -4.02850555 11.16321825 -8 14 C-9.32 14 -10.64 14 -12 14 C-12 15.32 -12 16.64 -12 18 C-13.98 18.33 -15.96 18.66 -18 19 C-17.34 18.67 -16.68 18.34 -16 18 C-15.72027344 17.38253906 -15.44054687 16.76507813 -15.15234375 16.12890625 C-13.70369416 13.45258752 -12.13832929 12.52360178 -9.5625 10.9375 C-4.5708615 7.83725665 -1.97759074 5.6285275 0 0 Z " fill="#2AA2BA" transform="translate(338,344)"/>
<path d="M0 0 C0.33 0.66 0.66 1.32 1 2 C1.66 2 2.32 2 3 2 C4.36757038 3.98139735 5.50345036 6.05472212 6.68359375 8.15234375 C7.94711956 10.30967459 7.94711956 10.30967459 11 11 C12.625 13.9375 12.625 13.9375 14 17 C14.33 17.66 14.66 18.32 15 19 C10.59541036 17.39928215 8.20272086 14.065218 5.3125 10.5625 C4.81427734 9.97662109 4.31605469 9.39074219 3.80273438 8.78710938 C1.65215446 6.21633475 0.06909485 4.20728456 -1 1 C-0.67 0.67 -0.34 0.34 0 0 Z " fill="#1B4964" transform="translate(368,279)"/>
<path d="M0 0 C0.66 0.33 1.32 0.66 2 1 C1.071875 1.680625 0.14375 2.36125 -0.8125 3.0625 C-4.31386639 5.94305675 -5.50631023 8.76787899 -7 13 C-7.66 13 -8.32 13 -9 13 C-8.938125 13.886875 -8.87625 14.77375 -8.8125 15.6875 C-9.01951982 19.34485017 -9.916074 21.04777151 -12 24 C-13.62935158 20.74129685 -12.07941198 18.01796858 -11.015625 14.671875 C-8.66036946 8.47574119 -5.52403176 3.78790749 0 0 Z " fill="#C1F0F8" transform="translate(365,452)"/>
<path d="M0 0 C0.33 0 0.66 0 1 0 C1.33 1.65 1.66 3.3 2 5 C4.97 3.35 7.94 1.7 11 0 C9.93223255 4.27106979 9.31749679 5.01357418 6.125 7.75 C5.42632812 8.36359375 4.72765625 8.9771875 4.0078125 9.609375 C2 11 2 11 -1 11 C-0.67 7.37 -0.34 3.74 0 0 Z " fill="#194866" transform="translate(247,224)"/>
<path d="M0 0 C0.33 1.32 0.66 2.64 1 4 C-0.32 4.33 -1.64 4.66 -3 5 C-2.67 6.65 -2.34 8.3 -2 10 C-1.01 10.33 -0.02 10.66 1 11 C0.67 11.66 0.34 12.32 0 13 C-0.9075 12.814375 -1.815 12.62875 -2.75 12.4375 C-5.75660854 12.03276424 -7.1880462 12.17475269 -10 13 C-3.84965831 3.40546697 -3.84965831 3.40546697 0 0 Z " fill="#1DA1C0" transform="translate(319,363)"/>
<path d="M0 0 C2.01136276 2.55991624 3.62845496 5.04590299 5 8 C5.99 6.02 6.98 4.04 8 2 C8.66 2.33 9.32 2.66 10 3 C8.35 6.96 6.7 10.92 5 15 C4.34 15 3.68 15 3 15 C2.49363393 13.25183142 1.99515381 11.50137737 1.5 9.75 C1.2215625 8.77546875 0.943125 7.8009375 0.65625 6.796875 C0 4 0 4 0 0 Z " fill="#CAF6FC" transform="translate(361,318)"/>
<path d="M0 0 C3.3 0.33 6.6 0.66 10 1 C10.19523387 4.22886781 10.38145976 7.45783148 10.5625 10.6875 C10.61857422 11.59951172 10.67464844 12.51152344 10.73242188 13.45117188 C10.78076172 14.33740234 10.82910156 15.22363281 10.87890625 16.13671875 C10.9260376 16.94842529 10.97316895 17.76013184 11.02172852 18.59643555 C10.99838228 21.1789485 10.5804792 23.48849909 10 26 C8 24 8 24 7.77294922 21.84521484 C7.78342285 20.97590332 7.79389648 20.1065918 7.8046875 19.2109375 C7.81113281 18.26992188 7.81757813 17.32890625 7.82421875 16.359375 C7.84097656 15.37453125 7.85773438 14.3896875 7.875 13.375 C7.88402344 12.38242187 7.89304688 11.38984375 7.90234375 10.3671875 C7.92595884 7.91121866 7.95889201 5.45572832 8 3 C5.36 2.34 2.72 1.68 0 1 C0 0.67 0 0.34 0 0 Z " fill="#D7F7F8" transform="translate(208,391)"/>
<path d="M0 0 C2.30190759 2.8942113 4.00834841 5.80243385 5.625 9.125 C6.05039062 9.99382812 6.47578125 10.86265625 6.9140625 11.7578125 C7.27242188 12.49773437 7.63078125 13.23765625 8 14 C8.33 14.66 8.66 15.32 9 16 C6.08264362 15.68461012 4.42948813 15.39881041 2.25 13.375 C0.62868311 10.2944979 0.38202186 7.43819674 0 4 C-0.33 3.34 -0.66 2.68 -1 2 C-0.67 1.34 -0.34 0.68 0 0 Z " fill="#DAECF2" transform="translate(322,182)"/>
<path d="M0 0 C0.66 0.33 1.32 0.66 2 1 C2.25398309 5.29057953 2.47398533 9.58223134 2.6875 13.875 C2.76033203 15.09832031 2.83316406 16.32164062 2.90820312 17.58203125 C2.96298828 18.74863281 3.01777344 19.91523438 3.07421875 21.1171875 C3.13182373 22.19597168 3.18942871 23.27475586 3.2487793 24.38623047 C3.12563354 25.68004639 3.12563354 25.68004639 3 27 C2.01 27.66 1.02 28.32 0 29 C-0.79953138 25.71303767 -1.09658936 24.28976808 0 21 C0.08143855 19.37280518 0.1075302 17.74248281 0.09765625 16.11328125 C0.09443359 15.17548828 0.09121094 14.23769531 0.08789062 13.27148438 C0.07951172 12.29501953 0.07113281 11.31855469 0.0625 10.3125 C0.05573242 8.83040039 0.05573242 8.83040039 0.04882812 7.31835938 C0.03704303 4.87884526 0.02059011 2.43945311 0 0 Z " fill="#C4EBF5" transform="translate(281,285)"/>
<path d="M0 0 C4.98063635 4.0631507 6.23483918 7.67910627 7 14 C7.125 17.5625 7.125 17.5625 7 20 C5.05892664 17.08838996 3.74501003 14.33771358 2.375 11.125 C1.92898437 10.09632813 1.48296875 9.06765625 1.0234375 8.0078125 C0.0346625 5.10187072 -0.21288192 3.0363684 0 0 Z " fill="#D4F8FC" transform="translate(239,245)"/>
<path d="M0 0 C1.71337661 3.21836957 2.95044241 6.48778086 4.125 9.9375 C4.47820312 10.95714844 4.83140625 11.97679687 5.1953125 13.02734375 C5.95925441 15.84947867 6.16038258 18.09707535 6 21 C6.66 21 7.32 21 8 21 C7.67 21.99 7.34 22.98 7 24 C7 23.34 7 22.68 7 22 C6.01 21.67 5.02 21.34 4 21 C3.26953125 19.07421875 3.26953125 19.07421875 2.8125 16.6875 C2.65394531 15.90761719 2.49539063 15.12773437 2.33203125 14.32421875 C2 12 2 12 2 8 C1.01 7.67 0.02 7.34 -1 7 C-0.67 4.69 -0.34 2.38 0 0 Z " fill="#2CA3BD" transform="translate(358,312)"/>
<path d="M0 0 C0.33 0.99 0.66 1.98 1 3 C1.66 3.33 2.32 3.66 3 4 C3.59765625 6.1796875 3.59765625 6.1796875 4.0625 8.875 C4.56270702 11.7108844 5.08689283 14.26067849 6 17 C6.99 17 7.98 17 9 17 C9 17.66 9 18.32 9 19 C7.02 18.67 5.04 18.34 3 18 C2.49309416 15.93918639 1.99475381 13.87626474 1.5 11.8125 C1.2215625 10.66394531 0.943125 9.51539063 0.65625 8.33203125 C0.08504615 5.43181171 -0.13283779 2.93903615 0 0 Z " fill="#D6ECF4" transform="translate(389,199)"/>
<path d="M0 0 C2 0.3125 2 0.3125 4 1 C4.33 1.66 4.66 2.32 5 3 C3.68 3.33 2.36 3.66 1 4 C1.33 4.66 1.66 5.32 2 6 C2.06996014 7.70702735 2.08440154 9.41668003 2.0625 11.125 C2.05347656 12.03507813 2.04445313 12.94515625 2.03515625 13.8828125 C2.02355469 14.58148438 2.01195312 15.28015625 2 16 C1.34 16.33 0.68 16.66 0 17 C-0.19386492 14.35448944 -0.38038267 11.70882217 -0.5625 9.0625 C-0.61857422 8.30775391 -0.67464844 7.55300781 -0.73242188 6.77539062 C-0.86176157 4.85254042 -0.93516912 2.92610452 -1 1 C-0.67 0.67 -0.34 0.34 0 0 Z " fill="#CEE3EA" transform="translate(311,170)"/>
<path d="M0 0 C2.97 0 5.94 0 9 0 C9 0.33 9 0.66 9 1 C9.74765625 1.10957031 10.4953125 1.21914063 11.265625 1.33203125 C12.74289063 1.56986328 12.74289063 1.56986328 14.25 1.8125 C15.22453125 1.96332031 16.1990625 2.11414063 17.203125 2.26953125 C20.12322338 3.03218264 21.74205815 4.03774101 24 6 C15.68383188 5.41640925 7.98540674 3.26200586 0 1 C0 0.67 0 0.34 0 0 Z " fill="#3CA9C1" transform="translate(188,385)"/>
<path d="M0 0 C9 4.5 9 4.5 18 9 C18 10.98 18 12.96 18 15 C17.79375 14.38125 17.5875 13.7625 17.375 13.125 C15.45794598 10.16228015 13.29282615 10.02900817 10 9 C9.34 8.01 8.68 7.02 8 6 C6.0533929 4.78581167 6.0533929 4.78581167 3.875 3.8125 C3.15054687 3.46832031 2.42609375 3.12414062 1.6796875 2.76953125 C1.12539063 2.51558594 0.57109375 2.26164062 0 2 C0 1.34 0 0.68 0 0 Z " fill="#259AB9" transform="translate(430,411)"/>
<path d="M0 0 C1.32 0.33 2.64 0.66 4 1 C-0.29 5.29 -4.58 9.58 -9 14 C-9.33 13.01 -9.66 12.02 -10 11 C-9.34 11 -8.68 11 -8 11 C-8 10.34 -8 9.68 -8 9 C-7.34 9 -6.68 9 -6 9 C-5.67 7.68 -5.34 6.36 -5 5 C-4.01 5 -3.02 5 -2 5 C-1.855625 4.360625 -1.71125 3.72125 -1.5625 3.0625 C-1 1 -1 1 0 0 Z " fill="#D7F8FD" transform="translate(306,374)"/>
<path d="M0 0 C3.12754976 0.612668 6.25146367 1.24221462 9.375 1.875 C10.70917969 2.13603516 10.70917969 2.13603516 12.0703125 2.40234375 C12.92109375 2.57636719 13.771875 2.75039062 14.6484375 2.9296875 C15.43395996 3.08679199 16.21948242 3.24389648 17.02880859 3.40576172 C19 4 19 4 21 6 C13.60225045 6.56663614 7.55925303 5.63077845 1 2 C0.67 1.34 0.34 0.68 0 0 Z " fill="#2A526D" transform="translate(397,218)"/>
<path d="M0 0 C0.99 0.495 0.99 0.495 2 1 C2 1.99 2 2.98 2 4 C2.66 4 3.32 4 4 4 C5.13480527 7.60993172 5.10015767 10.9842327 5.0625 14.75 C5.05347656 15.92046875 5.04445313 17.0909375 5.03515625 18.296875 C5.02355469 19.18890625 5.01195312 20.0809375 5 21 C4.67 21 4.34 21 4 21 C2.68 14.07 1.36 7.14 0 0 Z " fill="#D9EDF3" transform="translate(384,178)"/>
<path d="M0 0 C2.875 0.3125 2.875 0.3125 6 1 C6.66 1.99 7.32 2.98 8 4 C9.95385067 4.78988145 9.95385067 4.78988145 12.125 5.1875 C14.043125 5.5896875 14.043125 5.5896875 16 6 C15.67 7.32 15.34 8.64 15 10 C13.24528614 9.09238938 11.49640736 8.17349289 9.75 7.25 C8.77546875 6.73953125 7.8009375 6.2290625 6.796875 5.703125 C4.08506801 4.05180119 2.13203597 2.33508701 0 0 Z " fill="#C3F0F8" transform="translate(424,406)"/>
<path d="M0 0 C0.33 0 0.66 0 1 0 C1 1.65 1 3.3 1 5 C0.01 5 -0.98 5 -2 5 C-3.70993434 6.6222454 -5.37347684 8.29413425 -7 10 C-8.31175986 11.02813611 -9.6369893 12.04084432 -11 13 C-12.32 12.34 -13.64 11.68 -15 11 C-14.38511719 10.67386719 -13.77023437 10.34773438 -13.13671875 10.01171875 C-12.32847656 9.57472656 -11.52023437 9.13773437 -10.6875 8.6875 C-9.88699219 8.25824219 -9.08648437 7.82898438 -8.26171875 7.38671875 C-5.97749619 6.10716154 -5.97749619 6.10716154 -4.33203125 4.33203125 C-3.89246094 3.89246094 -3.45289063 3.45289063 -3 3 C-2.34 3 -1.68 3 -1 3 C-0.67 2.01 -0.34 1.02 0 0 Z " fill="#C7EEF7" transform="translate(439,439)"/>
<path d="M0 0 C2.64 0.66 5.28 1.32 8 2 C8.12375 2.804375 8.2475 3.60875 8.375 4.4375 C8.58125 5.283125 8.7875 6.12875 9 7 C9.66 7.33 10.32 7.66 11 8 C10.67 8.99 10.34 9.98 10 11 C9.484375 10.236875 8.96875 9.47375 8.4375 8.6875 C5.44152356 5.38424393 3.14287486 4.51374274 -1 3 C-0.67 2.01 -0.34 1.02 0 0 Z " fill="#DFF0F5" transform="translate(478,243)"/>
<path d="M0 0 C0.99 0 1.98 0 3 0 C3.96604701 3.24315782 4.13419024 6.18508666 4.125 9.5625 C4.12757813 10.51253906 4.13015625 11.46257812 4.1328125 12.44140625 C4 15 4 15 3 18 C2.01 17.67 1.02 17.34 0 17 C0.33 16.34 0.66 15.68 1 15 C2.28687011 11.13938967 2.13757618 8.05849717 2 4 C1.01 4 0.02 4 -1 4 C-0.67 2.68 -0.34 1.36 0 0 Z " fill="#1C496B" transform="translate(307,172)"/>
<path d="M0 0 C7.37653219 0.75015582 14.67831776 1.83441535 22 3 C22 3.33 22 3.66 22 4 C19.27076612 4.0270817 16.54180363 4.04687847 13.8125 4.0625 C13.04357422 4.07087891 12.27464844 4.07925781 11.48242188 4.08789062 C7.51473211 4.10491934 3.87428766 3.98604115 0 3 C0 2.01 0 1.02 0 0 Z " fill="#1D9DBA" transform="translate(250,273)"/>
<path d="M0 0 C0.99 0.33 1.98 0.66 3 1 C2.01 2.485 2.01 2.485 1 4 C0.34 4 -0.32 4 -1 4 C-1 4.99 -1 5.98 -1 7 C-1.804375 7.28875 -2.60875 7.5775 -3.4375 7.875 C-6.1326468 8.73262568 -6.1326468 8.73262568 -7 11 C-7 10.34 -7 9.68 -7 9 C-7.66 8.67 -8.32 8.34 -9 8 C-8.43410156 7.50628906 -7.86820313 7.01257813 -7.28515625 6.50390625 C-6.55167969 5.86324219 -5.81820312 5.22257813 -5.0625 4.5625 C-4.33160156 3.92441406 -3.60070312 3.28632813 -2.84765625 2.62890625 C-1.87860647 1.77458541 -0.91348825 0.91348825 0 0 Z " fill="#DCEDF2" transform="translate(254,229)"/>
<path d="M0 0 C0 0.66 0 1.32 0 2 C0.99 2 1.98 2 3 2 C3.28875 2.61875 3.5775 3.2375 3.875 3.875 C4.93720042 6.13325765 4.93720042 6.13325765 7 8 C6.67 8.99 6.34 9.98 6 11 C5.39671875 10.44570312 4.7934375 9.89140625 4.171875 9.3203125 C2.97304688 8.23363281 2.97304688 8.23363281 1.75 7.125 C0.96109375 6.40570313 0.1721875 5.68640625 -0.640625 4.9453125 C-2.72026168 3.23064517 -4.54419267 2.07019127 -7 1 C-2.25 0 -2.25 0 0 0 Z " fill="#1C4965" transform="translate(293,170)"/>
<path d="M0 0 C0.99 0.33 1.98 0.66 3 1 C1.5968277 4.33434242 0.03010195 6.05526479 -2.875 8.1875 C-3.55304688 8.69667969 -4.23109375 9.20585937 -4.9296875 9.73046875 C-6.98361986 10.98995557 -8.64588985 11.56190327 -11 12 C-11 11.34 -11 10.68 -11 10 C-8 8 -8 8 -5 8 C-4.67 6.68 -4.34 5.36 -4 4 C-2.68 4 -1.36 4 0 4 C0 2.68 0 1.36 0 0 Z " fill="#219EB8" transform="translate(437,437)"/>
<path d="M0 0 C1.34320982 4.02962945 0.02920742 6.71918092 -1.3125 10.5625 C-1.53873047 11.24763672 -1.76496094 11.93277344 -1.99804688 12.63867188 C-3.01597015 15.62790479 -3.73901487 17.73901487 -6 20 C-6.4454011 14.65518684 -5.5942824 11.55305374 -3.0234375 6.8671875 C-1.80833945 4.65032923 -0.88684492 2.36491979 0 0 Z " fill="#2DA3BD" transform="translate(277,318)"/>
<path d="M0 0 C0 1.65 0 3.3 0 5 C-0.66 3.68 -1.32 2.36 -2 1 C-2.66 1 -3.32 1 -4 1 C-4.99 3.97 -5.98 6.94 -7 10 C-7.33 10 -7.66 10 -8 10 C-8 7.03 -8 4.06 -8 1 C-5.29120665 -0.35439668 -2.99066732 -0.06501451 0 0 Z " fill="#D8F6F9" transform="translate(379,309)"/>
<path d="M0 0 C2.9719385 1.12451727 5.33440687 2.22293791 8 4 C8 4.66 8 5.32 8 6 C7.34 6 6.68 6 6 6 C5.67 6.66 5.34 7.32 5 8 C4.34 6.35 3.68 4.7 3 3 C2.54625 3.495 2.0925 3.99 1.625 4.5 C0 6 0 6 -2 6 C-2 4.68 -2 3.36 -2 2 C-1.34 2 -0.68 2 0 2 C0 1.34 0 0.68 0 0 Z " fill="#199EC4" transform="translate(422,406)"/>
<path d="M0 0 C0.66 0 1.32 0 2 0 C2 0.99 2 1.98 2 3 C4.31 3 6.62 3 9 3 C9 4.32 9 5.64 9 7 C3.53571429 6.39285714 3.53571429 6.39285714 1.125 4.625 C0 3 0 3 0 0 Z " fill="#F9F7F2" transform="translate(382,357)"/>
<path d="M0 0 C2.64 0 5.28 0 8 0 C7.67 0.99 7.34 1.98 7 3 C7.99 3.33 8.98 3.66 10 4 C10 4.66 10 5.32 10 6 C5.8333396 5.52651586 3.07115285 4.95303159 0 2 C0 1.34 0 0.68 0 0 Z " fill="#22A1BE" transform="translate(126,360)"/>
<path d="M0 0 C2.86453858 3.41016497 4.34703566 6.90694544 6 11 C5.34 11.66 4.68 12.32 4 13 C1.78631706 10.78631706 0.13447079 9.06983375 -0.265625 5.88671875 C-0.25166986 3.92253213 -0.13286356 1.9597375 0 0 Z " fill="#D9EBF1" transform="translate(360,268)"/>
<path d="M0 0 C5.53846154 -0.36923077 5.53846154 -0.36923077 7.875 1.5 C8.24625 1.995 8.6175 2.49 9 3 C8.34 3.66 7.68 4.32 7 5 C6.67 4.34 6.34 3.68 6 3 C5.34 3 4.68 3 4 3 C3.34 5.31 2.68 7.62 2 10 C1.67 10 1.34 10 1 10 C0.67 6.7 0.34 3.4 0 0 Z " fill="#D4E6EE" transform="translate(284,172)"/>
<path d="M0 0 C1.13529002 3.34491489 0.86633118 5.26065531 -0.3125 8.5625 C-0.57675781 9.32691406 -0.84101563 10.09132813 -1.11328125 10.87890625 C-2 13 -2 13 -4 16 C-4.66 16 -5.32 16 -6 16 C-4.27933894 10.55123997 -2.15294651 5.28830549 0 0 Z " fill="#28A2B9" transform="translate(345,328)"/>
<path d="M0 0 C2.375 2.0625 2.375 2.0625 4 4 C-1.05531868 3.22225866 -6.01716284 2.14051606 -11 1 C-11 0.67 -11 0.34 -11 0 C-7.01235853 -1.05555215 -3.99066575 -1.10380117 0 0 Z " fill="#DBEEF4" transform="translate(410,218)"/>
<path d="M0 0 C2.39073445 3.82517513 2.55966552 7.59665524 3 12 C2.01 12 1.02 12 0 12 C-1.1898306 9.6203388 -1.13349966 8.08514265 -1.125 5.4375 C-1.12886719 4.22900391 -1.12886719 4.22900391 -1.1328125 2.99609375 C-1 1 -1 1 0 0 Z " fill="#174B6C" transform="translate(389,204)"/>
<path d="M0 0 C-2.37536671 1.58357781 -4.76505664 3.11593693 -7.1875 4.625 C-7.90292969 5.07101562 -8.61835938 5.51703125 -9.35546875 5.9765625 C-10.16951172 6.48316406 -10.16951172 6.48316406 -11 7 C-11 5.35 -11 3.7 -11 2 C-7.17679443 0.57741188 -4.08718695 -0.24042276 0 0 Z " fill="#1EA0B8" transform="translate(370,450)"/>
<path d="M0 0 C-1.1094072 3.48670834 -2.26337666 6.77484237 -4 10 C-4.66 10 -5.32 10 -6 10 C-6.33 10.66 -6.66 11.32 -7 12 C-6.74337755 10.55989519 -6.46909179 9.1229313 -6.1875 7.6875 C-6.03667969 6.88699219 -5.88585937 6.08648437 -5.73046875 5.26171875 C-4.72356577 2.14408867 -3.45649214 0 0 0 Z " fill="#33A1BB" transform="translate(447,426)"/>
<path d="M0 0 C0.99 0.33 1.98 0.66 3 1 C0.36 4.3 -2.28 7.6 -5 11 C-6 7 -6 7 -4.6875 4.75 C-3.8521875 3.88375 -3.8521875 3.88375 -3 3 C-2.34 3 -1.68 3 -1 3 C-0.67 2.01 -0.34 1.02 0 0 Z " fill="#D3F7FC" transform="translate(316,363)"/>
<path d="M0 0 C3.81684226 1.55500981 6.19195732 4.03595495 9 7 C6 8 6 8 3.9375 7.125 C3.298125 6.75375 2.65875 6.3825 2 6 C1.34 5.67 0.68 5.34 0 5 C0 3.35 0 1.7 0 0 Z " fill="#E8F3F6" transform="translate(410,329)"/>
<path d="M0 0 C0.33 0 0.66 0 1 0 C1.3118744 4.26488247 0.34425989 6.98566073 -1.5 10.8125 C-1.9640625 11.78832031 -2.428125 12.76414062 -2.90625 13.76953125 C-3.2671875 14.50558594 -3.628125 15.24164063 -4 16 C-4.66 15.67 -5.32 15.34 -6 15 C-5.18872921 12.87453041 -4.37594602 10.74963805 -3.5625 8.625 C-3.11003906 7.44164062 -2.65757812 6.25828125 -2.19140625 5.0390625 C-1 2 -1 2 0 0 Z " fill="#31A4BC" transform="translate(372,317)"/>
<path d="M0 0 C0.66 0.99 1.32 1.98 2 3 C-0.8612164 5.33136151 -3.5435235 6.72656129 -7 8 C-7.99 8.495 -7.99 8.495 -9 9 C-9.99 8.34 -10.98 7.68 -12 7 C-10.5437455 6.32880451 -9.08492133 5.66318193 -7.625 5 C-6.81289063 4.62875 -6.00078125 4.2575 -5.1640625 3.875 C-3 3 -3 3 -1 3 C-0.67 2.01 -0.34 1.02 0 0 Z " fill="#CBE0E9" transform="translate(286,200)"/>
<path d="M0 0 C4.69159716 3.38772897 9.0299782 6.78185183 13 11 C10 11 10 11 8.54296875 9.65625 C8.03378906 9.1096875 7.52460938 8.563125 7 8 C5.16896121 6.71395991 3.30517235 5.49526661 1.42578125 4.28125 C0.95527344 3.8584375 0.48476563 3.435625 0 3 C0 2.01 0 1.02 0 0 Z " fill="#34A6BF" transform="translate(380,361)"/>
<path d="M0 0 C1.65 0.33 3.3 0.66 5 1 C5 1.99 5 2.98 5 4 C1.7 4 -1.6 4 -5 4 C-5 3.34 -5 2.68 -5 2 C-3.35 2 -1.7 2 0 2 C0 1.34 0 0.68 0 0 Z " fill="#134A72" transform="translate(421,224)"/>
<path d="M0 0 C1.32031595 0.56542004 2.6311301 1.15306472 3.9375 1.75 C4.66839844 2.07484375 5.39929688 2.3996875 6.15234375 2.734375 C8 4 8 4 8.75390625 6.140625 C8.83511719 6.75421875 8.91632813 7.3678125 9 8 C7.125 7.75 7.125 7.75 5 7 C4.30062468 5.68352881 3.63270867 4.34977849 3 3 C2.01 2.67 1.02 2.34 0 2 C0 1.34 0 0.68 0 0 Z " fill="#E2F3F7" transform="translate(333,199)"/>
<path d="M0 0 C2.0625 0.4375 2.0625 0.4375 4 1 C4 2.32 4 3.64 4 5 C4.99 5.33 5.98 5.66 7 6 C5.02 6.99 5.02 6.99 3 8 C1.02 4.535 1.02 4.535 -1 1 C-0.67 0.67 -0.34 0.34 0 0 Z " fill="#C8F2F6" transform="translate(281,392)"/>
<path d="M0 0 C1.32 0.33 2.64 0.66 4 1 C4 1.99 4 2.98 4 4 C5.32 4.66 6.64 5.32 8 6 C5 7 5 7 2.3125 5.8125 C1.549375 5.214375 0.78625 4.61625 0 4 C0 2.68 0 1.36 0 0 Z " fill="#E8FBFA" transform="translate(247,264)"/>
<path d="M0 0 C3 1 3 1 4.1875 2.8125 C5 5 5 5 5 9 C3.68 8.67 2.36 8.34 1 8 C0.67 5.36 0.34 2.72 0 0 Z " fill="#1A4E68" transform="translate(361,127)"/>
<path d="M0 0 C0.33 0.66 0.66 1.32 1 2 C-0.16290805 5.48872415 -1.13967609 6.09976864 -4.0625 8.1875 C-4.79597656 8.71730469 -5.52945312 9.24710937 -6.28515625 9.79296875 C-6.85105469 10.19128906 -7.41695313 10.58960938 -8 11 C-8.66 10.67 -9.32 10.34 -10 10 C-6.7 6.7 -3.4 3.4 0 0 Z " fill="#3AA6BB" transform="translate(308,376)"/>
<path d="M0 0 C0.6875 1.6875 0.6875 1.6875 1 4 C-0.50848547 7.09239522 -2.19872592 9.9529151 -5 12 C-7.6875 12.1875 -7.6875 12.1875 -10 12 C-8.38649781 10.2251476 -7.27079996 9.10154998 -5 8.25 C-1.83056931 6.26910582 -1.27814207 3.4509836 0 0 Z " fill="#3CAAC0" transform="translate(338,344)"/>
<path d="M0 0 C0.66 0 1.32 0 2 0 C3.85131483 3.92857754 4.22004943 6.98775112 4.125 11.3125 C4.10695313 12.38113281 4.08890625 13.44976562 4.0703125 14.55078125 C4.03550781 15.76314453 4.03550781 15.76314453 4 17 C3.67 17 3.34 17 3 17 C0.88838269 5.47835991 0.88838269 5.47835991 0 0 Z " fill="#D2F8FC" transform="translate(379,314)"/>
<path d="M0 0 C2.0625 0.4375 2.0625 0.4375 4 1 C4.33 3.31 4.66 5.62 5 8 C3 6 3 6 1 3 C0.34 4.65 -0.32 6.3 -1 8 C-1.33 8 -1.66 8 -2 8 C-1.125 1.125 -1.125 1.125 0 0 Z " fill="#CFF5F8" transform="translate(354,304)"/>
<path d="M0 0 C-1.04874998 2.62187494 -1.64931313 3.79371361 -4.125 5.25 C-4.74375 5.4975 -5.3625 5.745 -6 6 C-6.66 5.34 -7.32 4.68 -8 4 C-7.67 3.01 -7.34 2.02 -7 1 C-2.25 0 -2.25 0 0 0 Z " fill="#F1F8F9" transform="translate(264,226)"/>
<path d="M0 0 C0.33 0 0.66 0 1 0 C1.1799928 5.21979128 0.97094808 9.07262981 -1 14 C-1.66 14 -2.32 14 -3 14 C-2.01 9.38 -1.02 4.76 0 0 Z " fill="#C8F3F7" transform="translate(351,476)"/>
<path d="M0 0 C0.66 0 1.32 0 2 0 C2.33 0.99 2.66 1.98 3 3 C3.66 3.33 4.32 3.66 5 4 C5 5.32 5 6.64 5 8 C4.34 8 3.68 8 3 8 C2.67 9.32 2.34 10.64 2 12 C1.34 8.04 0.68 4.08 0 0 Z " fill="#225370" transform="translate(355,228)"/>
<path d="M0 0 C0.33 0.66 0.66 1.32 1 2 C0.00390625 4.3828125 0.00390625 4.3828125 -1.4375 7.125 C-1.91058594 8.03507813 -2.38367188 8.94515625 -2.87109375 9.8828125 C-3.24363281 10.58148438 -3.61617188 11.28015625 -4 12 C-4.99 11.67 -5.98 11.34 -7 11 C-5.22054913 6.95579349 -2.60470327 3.53921513 0 0 Z " fill="#C5DBE6" transform="translate(265,216)"/>
<path d="M0 0 C3.10551666 0 4.35261084 0.5393715 7 2 C6.01 2.495 6.01 2.495 5 3 C5.33 3.66 5.66 4.32 6 5 C4.35 5.66 2.7 6.32 1 7 C0 2.25 0 2.25 0 0 Z " fill="#E7F1F0" transform="translate(248,120)"/>
<path d="M0 0 C0.99 0.495 0.99 0.495 2 1 C2 1.66 2 2.32 2 3 C2.66 3 3.32 3 4 3 C4.99 5.97 5.98 8.94 7 12 C2.5991297 8.17819158 1.19194469 5.52628901 0 0 Z " fill="#D2F8FC" transform="translate(400,382)"/>
<path d="M0 0 C4.75 0.875 4.75 0.875 7 2 C6.34 3.32 5.68 4.64 5 6 C3.2925002 4.71937515 1.62626404 3.38232443 0 2 C0 1.34 0 0.68 0 0 Z " fill="#22516F" transform="translate(414,330)"/>
<path d="M0 0 C1.65 0 3.3 0 5 0 C4.1875 2.9375 4.1875 2.9375 3 6 C2.01 6.33 1.02 6.66 0 7 C0 4.69 0 2.38 0 0 Z " fill="#FBF8F3" transform="translate(312,360)"/>
<path d="M0 0 C4.11979807 1.37326602 7.04297546 4.08595092 9 8 C8.01 8.33 7.02 8.66 6 9 C6 8.34 6 7.68 6 7 C4.68 6.34 3.36 5.68 2 5 C2 4.01 2 3.02 2 2 C1.34 2 0.68 2 0 2 C0 1.34 0 0.68 0 0 Z " fill="#D5E9F1" transform="translate(437,352)"/>
<path d="M0 0 C2.5 2.3125 2.5 2.3125 5 5 C5 5.99 5 6.98 5 8 C0.125 5.375 0.125 5.375 -1 2 C-0.67 1.34 -0.34 0.68 0 0 Z " fill="#E5EEF2" transform="translate(394,312)"/>
<path d="M0 0 C4 2 4 2 5.25 4.625 C5.4975 5.40875 5.745 6.1925 6 7 C5.01 7.66 4.02 8.32 3 9 C2.01 6.03 1.02 3.06 0 0 Z " fill="#254F6B" transform="translate(481,247)"/>
<path d="M0 0 C1.65 1.65 3.3 3.3 5 5 C1.94736336 5.98120464 0.05263664 5.98120464 -3 5 C-2.67 4.01 -2.34 3.02 -2 2 C-1.34 2 -0.68 2 0 2 C0 1.34 0 0.68 0 0 Z " fill="#DEECF3" transform="translate(379,296)"/>
<path d="M0 0 C0.99 0 1.98 0 3 0 C3 1.98 3 3.96 3 6 C1.68 5.67 0.36 5.34 -1 5 C-0.67 3.35 -0.34 1.7 0 0 Z " fill="#F7F9EF" transform="translate(405,384)"/>
<path d="M0 0 C5.28 0 10.56 0 16 0 C16 0.33 16 0.66 16 1 C11.38 1 6.76 1 2 1 C2 1.66 2 2.32 2 3 C1.01 2.67 0.02 2.34 -1 2 C-0.67 1.34 -0.34 0.68 0 0 Z " fill="#E4FAFA" transform="translate(174,381)"/>
<path d="M0 0 C-2.64 1.98 -5.28 3.96 -8 6 C-7.8125 3.625 -7.8125 3.625 -7 1 C-2.77108434 -1.38554217 -2.77108434 -1.38554217 0 0 Z " fill="#DDF8FC" transform="translate(330,354)"/>
<path d="M0 0 C0.33 0 0.66 0 1 0 C1 2.97 1 5.94 1 9 C-0.98 9.99 -0.98 9.99 -3 11 C-2.01 7.37 -1.02 3.74 0 0 Z " fill="#C0E8F3" transform="translate(271,338)"/>
<path d="M0 0 C1.9789756 3.63616656 2.5251065 6.88425629 3 11 C2.01 11.495 2.01 11.495 1 12 C0.03929566 9.11788698 -0.10581883 7.30149956 -0.0625 4.3125 C-0.05347656 3.50425781 -0.04445313 2.69601562 -0.03515625 1.86328125 C-0.02355469 1.24839844 -0.01195312 0.63351562 0 0 Z " fill="#35AABD" transform="translate(379,316)"/>
<path d="M0 0 C0.99 0 1.98 0 3 0 C3 2.31 3 4.62 3 7 C2.34 7 1.68 7 1 7 C1 6.01 1 5.02 1 4 C0.34 4 -0.32 4 -1 4 C-0.67 2.68 -0.34 1.36 0 0 Z " fill="#089DCF" transform="translate(355,312)"/>
<path d="M0 0 C0.33 0.66 0.66 1.32 1 2 C1.99 2 2.98 2 4 2 C4.66 4.31 5.32 6.62 6 9 C0.125 4.375 0.125 4.375 -1 1 C-0.67 0.67 -0.34 0.34 0 0 Z " fill="#325D7C" transform="translate(384,299)"/>
<path d="M0 0 C1.32 0.33 2.64 0.66 4 1 C4 1.66 4 2.32 4 3 C1.36 3.99 -1.28 4.98 -4 6 C-4 4.68 -4 3.36 -4 2 C-2.68 1.67 -1.36 1.34 0 1 C0 0.67 0 0.34 0 0 Z " fill="#F7F8F3" transform="translate(132,240)"/>
<path d="M0 0 C2.49361571 1.20381448 4.68143083 2.45428722 7 4 C7 4.99 7 5.98 7 7 C4.13302508 5.71480435 2.02392288 4.42870746 0 2 C0 1.34 0 0.68 0 0 Z " fill="#C6F5FA" transform="translate(380,359)"/>
<path d="M0 0 C0.95465783 2.16967689 1.14401212 3.56328793 0.3984375 5.82421875 C-0.35870385 7.5684743 -1.17609198 9.28627131 -2 11 C-2.66 11 -3.32 11 -4 11 C-3.52269162 9.5410574 -3.04308958 8.08286504 -2.5625 6.625 C-2.29566406 5.81289063 -2.02882813 5.00078125 -1.75390625 4.1640625 C-1 2 -1 2 0 0 Z " fill="#35A4B8" transform="translate(351,314)"/>
<path d="M0 0 C0.66 0 1.32 0 2 0 C2.66 1.98 3.32 3.96 4 6 C3.34 6 2.68 6 2 6 C2 5.34 2 4.68 2 4 C1.34 4 0.68 4 0 4 C0 4.66 0 5.32 0 6 C-0.66 6 -1.32 6 -2 6 C-1.34 4.02 -0.68 2.04 0 0 Z " fill="#3EA4C0" transform="translate(375,310)"/>
<path d="M0 0 C0.33 0.66 0.66 1.32 1 2 C-0.98 2.99 -0.98 2.99 -3 4 C-3.99 3.34 -4.98 2.68 -6 2 C-6 1.34 -6 0.68 -6 0 C-3 -1 -3 -1 0 0 Z " fill="#EFF9FA" transform="translate(419,219)"/>
<path d="M0 0 C0.99 0.33 1.98 0.66 3 1 C3.33 1.99 3.66 2.98 4 4 C4.66 4.33 5.32 4.66 6 5 C6 5.99 6 6.98 6 8 C4.125 7.375 4.125 7.375 2 6 C0.75 2.875 0.75 2.875 0 0 Z " fill="#37A4C0" transform="translate(246,478)"/>
<path d="M0 0 C0.33 0 0.66 0 1 0 C1.25 2.25 1.25 2.25 1 5 C-1 7.3125 -1 7.3125 -3 9 C-3.66 8.67 -4.32 8.34 -5 8 C-4.67 7.34 -4.34 6.68 -4 6 C-3.34 6 -2.68 6 -2 6 C-1.7834375 5.071875 -1.7834375 5.071875 -1.5625 4.125 C-1 2 -1 2 0 0 Z " fill="#CBF5FB" transform="translate(445,430)"/>
<path d="M0 0 C4.875 4.75 4.875 4.75 6 7 C3.03 6.505 3.03 6.505 0 6 C0 4.02 0 2.04 0 0 Z " fill="#2AA3C0" transform="translate(402,389)"/>
<path d="M0 0 C2.4375 1.25 2.4375 1.25 3.4375 4.25 C-0.47088866 4.25 -1.67844107 2.74432124 -4.5625 0.25 C-2.5625 -0.75 -2.5625 -0.75 0 0 Z " fill="#D6E2E9" transform="translate(407.5625,324.75)"/>
<path d="M0 0 C0.66 0.66 1.32 1.32 2 2 C0.68 4.97 -0.64 7.94 -2 11 C-3.28485596 5.86057616 -2.22194431 4.62164416 0 0 Z " fill="#D4F8FC" transform="translate(350,312)"/>
<path d="M0 0 C2.9719385 1.12451727 5.33440687 2.22293791 8 4 C7.67 5.32 7.34 6.64 7 8 C6.401875 7.236875 5.80375 6.47375 5.1875 5.6875 C3.53040668 3.6516425 1.89702326 1.8021721 0 0 Z " fill="#335E77" transform="translate(392,310)"/>
<path d="M0 0 C3.83736322 0.95934081 4.59660228 1.23609263 7 4 C6.67 4.99 6.34 5.98 6 7 C4.02 4.69 2.04 2.38 0 0 Z " fill="#1F4D69" transform="translate(300,182)"/>
<path d="M0 0 C2.31 1.98 4.62 3.96 7 6 C5.68 6.33 4.36 6.66 3 7 C1 4 1 4 0 0 Z " fill="#D1E3ED" transform="translate(447,360)"/>
<path d="M0 0 C0.33 0 0.66 0 1 0 C0.4140625 6.15234375 0.4140625 6.15234375 0 8 C-0.99 8.495 -0.99 8.495 -2 9 C-2.25 3.375 -2.25 3.375 0 0 Z " fill="#159EB3" transform="translate(279,309)"/>
<path d="M0 0 C4.42857143 5.14285714 4.42857143 5.14285714 5 9 C4.34 9 3.68 9 3 9 C3 8.01 3 7.02 3 6 C2.34 6 1.68 6 1 6 C1 5.34 1 4.68 1 4 C0.34 4 -0.32 4 -1 4 C-0.67 2.68 -0.34 1.36 0 0 Z " fill="#CDE3E9" transform="translate(347,211)"/>
<path d="M0 0 C0 0.66 0 1.32 0 2 C0.66 2.33 1.32 2.66 2 3 C1.34 3.66 0.68 4.32 0 5 C-2.31 4.01 -4.62 3.02 -7 2 C-7 1.67 -7 1.34 -7 1 C-2.25 0 -2.25 0 0 0 Z " fill="#345D77" transform="translate(293,170)"/>
<path d="M0 0 C0.33 1.32 0.66 2.64 1 4 C-0.32 4.33 -1.64 4.66 -3 5 C-3 5.66 -3 6.32 -3 7 C-3.66 6.67 -4.32 6.34 -5 6 C-3.35 4.02 -1.7 2.04 0 0 Z " fill="#3AA6C3" transform="translate(319,363)"/>
<path d="M0 0 C2.31 0 4.62 0 7 0 C6.67 1.65 6.34 3.3 6 5 C3.98079663 3.69593116 1.98075027 2.36176581 0 1 C0 0.67 0 0.34 0 0 Z " fill="#1E5273" transform="translate(400,318)"/>
<path d="M0 0 C0.66 0.33 1.32 0.66 2 1 C2.625 3.5625 2.625 3.5625 3 6 C1.35 5.67 -0.3 5.34 -2 5 C-1.34 3.35 -0.68 1.7 0 0 Z " fill="#39A2B9" transform="translate(355,306)"/>
<path d="M0 0 C0.33 0 0.66 0 1 0 C1 1.65 1 3.3 1 5 C1.66 5 2.32 5 3 5 C3 6.32 3 7.64 3 9 C2.01 9 1.02 9 0 9 C0 6.03 0 3.06 0 0 Z " fill="#0C3F61" transform="translate(383,183)"/>
</svg>
